<?xml version="1.0" encoding="utf-8" standalone="no"?>
<!DOCTYPE svg PUBLIC "-//W3C//DTD SVG 1.1//EN"
  "http://www.w3.org/Graphics/SVG/1.1/DTD/svg11.dtd">
<svg xmlns:xlink="http://www.w3.org/1999/xlink" width="1440pt" height="2016pt" viewBox="0 0 1440 2016" xmlns="http://www.w3.org/2000/svg" version="1.1">
 <metadata>
  <rdf:RDF xmlns:dc="http://purl.org/dc/elements/1.1/" xmlns:cc="http://creativecommons.org/ns#" xmlns:rdf="http://www.w3.org/1999/02/22-rdf-syntax-ns#">
   <cc:Work>
    <dc:type rdf:resource="http://purl.org/dc/dcmitype/StillImage"/>
    <dc:date>2022-09-28T00:12:24.164708</dc:date>
    <dc:format>image/svg+xml</dc:format>
    <dc:creator>
     <cc:Agent>
      <dc:title>Matplotlib v3.5.2, https://matplotlib.org/</dc:title>
     </cc:Agent>
    </dc:creator>
   </cc:Work>
  </rdf:RDF>
 </metadata>
 <defs>
  <style type="text/css">*{stroke-linejoin: round; stroke-linecap: butt}</style>
 </defs>
 <g id="figure_1">
  <g id="patch_1">
   <path d="M 0 2016 
L 1440 2016 
L 1440 0 
L 0 0 
z
" style="fill: #ffffff"/>
  </g>
  <g id="axes_1">
   <g id="patch_2">
    <path d="M 398.51 565.32 
L 1407.6 565.32 
L 1407.6 66.96 
L 398.51 66.96 
z
" style="fill: #ffffff"/>
   </g>
   <g id="patch_3">
    <path d="M 398.51 509.946667 
L 431.256838 509.946667 
L 431.256838 454.573333 
L 398.51 454.573333 
z
" clip-path="url(#pa4837fd4d5)" style="fill: #1f77b4"/>
   </g>
   <g id="patch_4">
    <path d="M 398.51 399.2 
L 635.65803 399.2 
L 635.65803 343.826667 
L 398.51 343.826667 
z
" clip-path="url(#pa4837fd4d5)" style="fill: #ff7f0e"/>
   </g>
   <g id="patch_5">
    <path d="M 398.51 288.453333 
L 923.525581 288.453333 
L 923.525581 233.08 
L 398.51 233.08 
z
" clip-path="url(#pa4837fd4d5)" style="fill: #2ca02c"/>
   </g>
   <g id="patch_6">
    <path d="M 398.51 177.706667 
L 1239.418333 177.706667 
L 1239.418333 122.333333 
L 398.51 122.333333 
z
" clip-path="url(#pa4837fd4d5)" style="fill: #d62728"/>
   </g>
   <g id="matplotlib.axis_1">
    <g id="xtick_1">
     <g id="line2d_1">
      <defs>
       <path id="m4c572c20bb" d="M 0 0 
L 0 3.5 
" style="stroke: #000000; stroke-width: 0.8"/>
      </defs>
      <g>
       <use xlink:href="#m4c572c20bb" x="398.51" y="565.32" style="stroke: #000000; stroke-width: 0.8"/>
      </g>
     </g>
     <g id="text_1">
      <!-- 0 -->
      <g transform="translate(388.96625 595.115312)scale(0.3 -0.3)">
       <defs>
        <path id="DejaVuSans-30" d="M 2034 4250 
Q 1547 4250 1301 3770 
Q 1056 3291 1056 2328 
Q 1056 1369 1301 889 
Q 1547 409 2034 409 
Q 2525 409 2770 889 
Q 3016 1369 3016 2328 
Q 3016 3291 2770 3770 
Q 2525 4250 2034 4250 
z
M 2034 4750 
Q 2819 4750 3233 4129 
Q 3647 3509 3647 2328 
Q 3647 1150 3233 529 
Q 2819 -91 2034 -91 
Q 1250 -91 836 529 
Q 422 1150 422 2328 
Q 422 3509 836 4129 
Q 1250 4750 2034 4750 
z
" transform="scale(0.015625)"/>
       </defs>
       <use xlink:href="#DejaVuSans-30"/>
      </g>
     </g>
    </g>
    <g id="xtick_2">
     <g id="line2d_2">
      <g>
       <use xlink:href="#m4c572c20bb" x="550.820874" y="565.32" style="stroke: #000000; stroke-width: 0.8"/>
      </g>
     </g>
     <g id="text_2">
      <!-- 1000 -->
      <g transform="translate(512.645874 595.115312)scale(0.3 -0.3)">
       <defs>
        <path id="DejaVuSans-31" d="M 794 531 
L 1825 531 
L 1825 4091 
L 703 3866 
L 703 4441 
L 1819 4666 
L 2450 4666 
L 2450 531 
L 3481 531 
L 3481 0 
L 794 0 
L 794 531 
z
" transform="scale(0.015625)"/>
       </defs>
       <use xlink:href="#DejaVuSans-31"/>
       <use xlink:href="#DejaVuSans-30" x="63.623047"/>
       <use xlink:href="#DejaVuSans-30" x="127.246094"/>
       <use xlink:href="#DejaVuSans-30" x="190.869141"/>
      </g>
     </g>
    </g>
    <g id="xtick_3">
     <g id="line2d_3">
      <g>
       <use xlink:href="#m4c572c20bb" x="703.131747" y="565.32" style="stroke: #000000; stroke-width: 0.8"/>
      </g>
     </g>
     <g id="text_3">
      <!-- 2000 -->
      <g transform="translate(664.956747 595.115312)scale(0.3 -0.3)">
       <defs>
        <path id="DejaVuSans-32" d="M 1228 531 
L 3431 531 
L 3431 0 
L 469 0 
L 469 531 
Q 828 903 1448 1529 
Q 2069 2156 2228 2338 
Q 2531 2678 2651 2914 
Q 2772 3150 2772 3378 
Q 2772 3750 2511 3984 
Q 2250 4219 1831 4219 
Q 1534 4219 1204 4116 
Q 875 4013 500 3803 
L 500 4441 
Q 881 4594 1212 4672 
Q 1544 4750 1819 4750 
Q 2544 4750 2975 4387 
Q 3406 4025 3406 3419 
Q 3406 3131 3298 2873 
Q 3191 2616 2906 2266 
Q 2828 2175 2409 1742 
Q 1991 1309 1228 531 
z
" transform="scale(0.015625)"/>
       </defs>
       <use xlink:href="#DejaVuSans-32"/>
       <use xlink:href="#DejaVuSans-30" x="63.623047"/>
       <use xlink:href="#DejaVuSans-30" x="127.246094"/>
       <use xlink:href="#DejaVuSans-30" x="190.869141"/>
      </g>
     </g>
    </g>
    <g id="xtick_4">
     <g id="line2d_4">
      <g>
       <use xlink:href="#m4c572c20bb" x="855.442621" y="565.32" style="stroke: #000000; stroke-width: 0.8"/>
      </g>
     </g>
     <g id="text_4">
      <!-- 3000 -->
      <g transform="translate(817.267621 595.115312)scale(0.3 -0.3)">
       <defs>
        <path id="DejaVuSans-33" d="M 2597 2516 
Q 3050 2419 3304 2112 
Q 3559 1806 3559 1356 
Q 3559 666 3084 287 
Q 2609 -91 1734 -91 
Q 1441 -91 1130 -33 
Q 819 25 488 141 
L 488 750 
Q 750 597 1062 519 
Q 1375 441 1716 441 
Q 2309 441 2620 675 
Q 2931 909 2931 1356 
Q 2931 1769 2642 2001 
Q 2353 2234 1838 2234 
L 1294 2234 
L 1294 2753 
L 1863 2753 
Q 2328 2753 2575 2939 
Q 2822 3125 2822 3475 
Q 2822 3834 2567 4026 
Q 2313 4219 1838 4219 
Q 1578 4219 1281 4162 
Q 984 4106 628 3988 
L 628 4550 
Q 988 4650 1302 4700 
Q 1616 4750 1894 4750 
Q 2613 4750 3031 4423 
Q 3450 4097 3450 3541 
Q 3450 3153 3228 2886 
Q 3006 2619 2597 2516 
z
" transform="scale(0.015625)"/>
       </defs>
       <use xlink:href="#DejaVuSans-33"/>
       <use xlink:href="#DejaVuSans-30" x="63.623047"/>
       <use xlink:href="#DejaVuSans-30" x="127.246094"/>
       <use xlink:href="#DejaVuSans-30" x="190.869141"/>
      </g>
     </g>
    </g>
    <g id="xtick_5">
     <g id="line2d_5">
      <g>
       <use xlink:href="#m4c572c20bb" x="1007.753495" y="565.32" style="stroke: #000000; stroke-width: 0.8"/>
      </g>
     </g>
     <g id="text_5">
      <!-- 4000 -->
      <g transform="translate(969.578495 595.115312)scale(0.3 -0.3)">
       <defs>
        <path id="DejaVuSans-34" d="M 2419 4116 
L 825 1625 
L 2419 1625 
L 2419 4116 
z
M 2253 4666 
L 3047 4666 
L 3047 1625 
L 3713 1625 
L 3713 1100 
L 3047 1100 
L 3047 0 
L 2419 0 
L 2419 1100 
L 313 1100 
L 313 1709 
L 2253 4666 
z
" transform="scale(0.015625)"/>
       </defs>
       <use xlink:href="#DejaVuSans-34"/>
       <use xlink:href="#DejaVuSans-30" x="63.623047"/>
       <use xlink:href="#DejaVuSans-30" x="127.246094"/>
       <use xlink:href="#DejaVuSans-30" x="190.869141"/>
      </g>
     </g>
    </g>
    <g id="xtick_6">
     <g id="line2d_6">
      <g>
       <use xlink:href="#m4c572c20bb" x="1160.064368" y="565.32" style="stroke: #000000; stroke-width: 0.8"/>
      </g>
     </g>
     <g id="text_6">
      <!-- 5000 -->
      <g transform="translate(1121.889368 595.115312)scale(0.3 -0.3)">
       <defs>
        <path id="DejaVuSans-35" d="M 691 4666 
L 3169 4666 
L 3169 4134 
L 1269 4134 
L 1269 2991 
Q 1406 3038 1543 3061 
Q 1681 3084 1819 3084 
Q 2600 3084 3056 2656 
Q 3513 2228 3513 1497 
Q 3513 744 3044 326 
Q 2575 -91 1722 -91 
Q 1428 -91 1123 -41 
Q 819 9 494 109 
L 494 744 
Q 775 591 1075 516 
Q 1375 441 1709 441 
Q 2250 441 2565 725 
Q 2881 1009 2881 1497 
Q 2881 1984 2565 2268 
Q 2250 2553 1709 2553 
Q 1456 2553 1204 2497 
Q 953 2441 691 2322 
L 691 4666 
z
" transform="scale(0.015625)"/>
       </defs>
       <use xlink:href="#DejaVuSans-35"/>
       <use xlink:href="#DejaVuSans-30" x="63.623047"/>
       <use xlink:href="#DejaVuSans-30" x="127.246094"/>
       <use xlink:href="#DejaVuSans-30" x="190.869141"/>
      </g>
     </g>
    </g>
    <g id="xtick_7">
     <g id="line2d_7">
      <g>
       <use xlink:href="#m4c572c20bb" x="1312.375242" y="565.32" style="stroke: #000000; stroke-width: 0.8"/>
      </g>
     </g>
     <g id="text_7">
      <!-- 6000 -->
      <g transform="translate(1274.200242 595.115312)scale(0.3 -0.3)">
       <defs>
        <path id="DejaVuSans-36" d="M 2113 2584 
Q 1688 2584 1439 2293 
Q 1191 2003 1191 1497 
Q 1191 994 1439 701 
Q 1688 409 2113 409 
Q 2538 409 2786 701 
Q 3034 994 3034 1497 
Q 3034 2003 2786 2293 
Q 2538 2584 2113 2584 
z
M 3366 4563 
L 3366 3988 
Q 3128 4100 2886 4159 
Q 2644 4219 2406 4219 
Q 1781 4219 1451 3797 
Q 1122 3375 1075 2522 
Q 1259 2794 1537 2939 
Q 1816 3084 2150 3084 
Q 2853 3084 3261 2657 
Q 3669 2231 3669 1497 
Q 3669 778 3244 343 
Q 2819 -91 2113 -91 
Q 1303 -91 875 529 
Q 447 1150 447 2328 
Q 447 3434 972 4092 
Q 1497 4750 2381 4750 
Q 2619 4750 2861 4703 
Q 3103 4656 3366 4563 
z
" transform="scale(0.015625)"/>
       </defs>
       <use xlink:href="#DejaVuSans-36"/>
       <use xlink:href="#DejaVuSans-30" x="63.623047"/>
       <use xlink:href="#DejaVuSans-30" x="127.246094"/>
       <use xlink:href="#DejaVuSans-30" x="190.869141"/>
      </g>
     </g>
    </g>
    <g id="text_8">
     <!-- Metric Values -->
     <g transform="translate(398.51 634.149687)scale(0.3 -0.3)">
      <defs>
       <path id="DejaVuSans-Bold-4d" d="M 588 4666 
L 2119 4666 
L 3181 2169 
L 4250 4666 
L 5778 4666 
L 5778 0 
L 4641 0 
L 4641 3413 
L 3566 897 
L 2803 897 
L 1728 3413 
L 1728 0 
L 588 0 
L 588 4666 
z
" transform="scale(0.015625)"/>
       <path id="DejaVuSans-Bold-65" d="M 4031 1759 
L 4031 1441 
L 1416 1441 
Q 1456 1047 1700 850 
Q 1944 653 2381 653 
Q 2734 653 3104 758 
Q 3475 863 3866 1075 
L 3866 213 
Q 3469 63 3072 -14 
Q 2675 -91 2278 -91 
Q 1328 -91 801 392 
Q 275 875 275 1747 
Q 275 2603 792 3093 
Q 1309 3584 2216 3584 
Q 3041 3584 3536 3087 
Q 4031 2591 4031 1759 
z
M 2881 2131 
Q 2881 2450 2695 2645 
Q 2509 2841 2209 2841 
Q 1884 2841 1681 2658 
Q 1478 2475 1428 2131 
L 2881 2131 
z
" transform="scale(0.015625)"/>
       <path id="DejaVuSans-Bold-74" d="M 1759 4494 
L 1759 3500 
L 2913 3500 
L 2913 2700 
L 1759 2700 
L 1759 1216 
Q 1759 972 1856 886 
Q 1953 800 2241 800 
L 2816 800 
L 2816 0 
L 1856 0 
Q 1194 0 917 276 
Q 641 553 641 1216 
L 641 2700 
L 84 2700 
L 84 3500 
L 641 3500 
L 641 4494 
L 1759 4494 
z
" transform="scale(0.015625)"/>
       <path id="DejaVuSans-Bold-72" d="M 3138 2547 
Q 2991 2616 2845 2648 
Q 2700 2681 2553 2681 
Q 2122 2681 1889 2404 
Q 1656 2128 1656 1613 
L 1656 0 
L 538 0 
L 538 3500 
L 1656 3500 
L 1656 2925 
Q 1872 3269 2151 3426 
Q 2431 3584 2822 3584 
Q 2878 3584 2943 3579 
Q 3009 3575 3134 3559 
L 3138 2547 
z
" transform="scale(0.015625)"/>
       <path id="DejaVuSans-Bold-69" d="M 538 3500 
L 1656 3500 
L 1656 0 
L 538 0 
L 538 3500 
z
M 538 4863 
L 1656 4863 
L 1656 3950 
L 538 3950 
L 538 4863 
z
" transform="scale(0.015625)"/>
       <path id="DejaVuSans-Bold-63" d="M 3366 3391 
L 3366 2478 
Q 3138 2634 2908 2709 
Q 2678 2784 2431 2784 
Q 1963 2784 1702 2511 
Q 1441 2238 1441 1747 
Q 1441 1256 1702 982 
Q 1963 709 2431 709 
Q 2694 709 2930 787 
Q 3166 866 3366 1019 
L 3366 103 
Q 3103 6 2833 -42 
Q 2563 -91 2291 -91 
Q 1344 -91 809 395 
Q 275 881 275 1747 
Q 275 2613 809 3098 
Q 1344 3584 2291 3584 
Q 2566 3584 2833 3536 
Q 3100 3488 3366 3391 
z
" transform="scale(0.015625)"/>
       <path id="DejaVuSans-Bold-20" transform="scale(0.015625)"/>
       <path id="DejaVuSans-Bold-56" d="M 31 4666 
L 1241 4666 
L 2478 1222 
L 3713 4666 
L 4922 4666 
L 3194 0 
L 1759 0 
L 31 4666 
z
" transform="scale(0.015625)"/>
       <path id="DejaVuSans-Bold-61" d="M 2106 1575 
Q 1756 1575 1579 1456 
Q 1403 1338 1403 1106 
Q 1403 894 1545 773 
Q 1688 653 1941 653 
Q 2256 653 2472 879 
Q 2688 1106 2688 1447 
L 2688 1575 
L 2106 1575 
z
M 3816 1997 
L 3816 0 
L 2688 0 
L 2688 519 
Q 2463 200 2181 54 
Q 1900 -91 1497 -91 
Q 953 -91 614 226 
Q 275 544 275 1050 
Q 275 1666 698 1953 
Q 1122 2241 2028 2241 
L 2688 2241 
L 2688 2328 
Q 2688 2594 2478 2717 
Q 2269 2841 1825 2841 
Q 1466 2841 1156 2769 
Q 847 2697 581 2553 
L 581 3406 
Q 941 3494 1303 3539 
Q 1666 3584 2028 3584 
Q 2975 3584 3395 3211 
Q 3816 2838 3816 1997 
z
" transform="scale(0.015625)"/>
       <path id="DejaVuSans-Bold-6c" d="M 538 4863 
L 1656 4863 
L 1656 0 
L 538 0 
L 538 4863 
z
" transform="scale(0.015625)"/>
       <path id="DejaVuSans-Bold-75" d="M 500 1363 
L 500 3500 
L 1625 3500 
L 1625 3150 
Q 1625 2866 1622 2436 
Q 1619 2006 1619 1863 
Q 1619 1441 1641 1255 
Q 1663 1069 1716 984 
Q 1784 875 1895 815 
Q 2006 756 2150 756 
Q 2500 756 2700 1025 
Q 2900 1294 2900 1772 
L 2900 3500 
L 4019 3500 
L 4019 0 
L 2900 0 
L 2900 506 
Q 2647 200 2364 54 
Q 2081 -91 1741 -91 
Q 1134 -91 817 281 
Q 500 653 500 1363 
z
" transform="scale(0.015625)"/>
       <path id="DejaVuSans-Bold-73" d="M 3272 3391 
L 3272 2541 
Q 2913 2691 2578 2766 
Q 2244 2841 1947 2841 
Q 1628 2841 1473 2761 
Q 1319 2681 1319 2516 
Q 1319 2381 1436 2309 
Q 1553 2238 1856 2203 
L 2053 2175 
Q 2913 2066 3209 1816 
Q 3506 1566 3506 1031 
Q 3506 472 3093 190 
Q 2681 -91 1863 -91 
Q 1516 -91 1145 -36 
Q 775 19 384 128 
L 384 978 
Q 719 816 1070 734 
Q 1422 653 1784 653 
Q 2113 653 2278 743 
Q 2444 834 2444 1013 
Q 2444 1163 2330 1236 
Q 2216 1309 1875 1350 
L 1678 1375 
Q 931 1469 631 1722 
Q 331 1975 331 2491 
Q 331 3047 712 3315 
Q 1094 3584 1881 3584 
Q 2191 3584 2531 3537 
Q 2872 3491 3272 3391 
z
" transform="scale(0.015625)"/>
      </defs>
      <use xlink:href="#DejaVuSans-Bold-4d"/>
      <use xlink:href="#DejaVuSans-Bold-65" x="99.511719"/>
      <use xlink:href="#DejaVuSans-Bold-74" x="167.333984"/>
      <use xlink:href="#DejaVuSans-Bold-72" x="215.136719"/>
      <use xlink:href="#DejaVuSans-Bold-69" x="264.453125"/>
      <use xlink:href="#DejaVuSans-Bold-63" x="298.730469"/>
      <use xlink:href="#DejaVuSans-Bold-20" x="358.007812"/>
      <use xlink:href="#DejaVuSans-Bold-56" x="392.822266"/>
      <use xlink:href="#DejaVuSans-Bold-61" x="464.714844"/>
      <use xlink:href="#DejaVuSans-Bold-6c" x="532.195312"/>
      <use xlink:href="#DejaVuSans-Bold-75" x="566.472656"/>
      <use xlink:href="#DejaVuSans-Bold-65" x="637.664062"/>
      <use xlink:href="#DejaVuSans-Bold-73" x="705.486328"/>
     </g>
    </g>
   </g>
   <g id="matplotlib.axis_2">
    <g id="ytick_1">
     <g id="line2d_8">
      <defs>
       <path id="m60e3178102" d="M 0 0 
L -3.5 0 
" style="stroke: #000000; stroke-width: 0.8"/>
      </defs>
      <g>
       <use xlink:href="#m60e3178102" x="398.51" y="482.26" style="stroke: #000000; stroke-width: 0.8"/>
      </g>
     </g>
     <g id="text_9">
      <!-- FastCSV_sum -->
      <g transform="translate(191.84125 493.392812)scale(0.3 -0.3)">
       <defs>
        <path id="DejaVuSans-46" d="M 628 4666 
L 3309 4666 
L 3309 4134 
L 1259 4134 
L 1259 2759 
L 3109 2759 
L 3109 2228 
L 1259 2228 
L 1259 0 
L 628 0 
L 628 4666 
z
" transform="scale(0.015625)"/>
        <path id="DejaVuSans-61" d="M 2194 1759 
Q 1497 1759 1228 1600 
Q 959 1441 959 1056 
Q 959 750 1161 570 
Q 1363 391 1709 391 
Q 2188 391 2477 730 
Q 2766 1069 2766 1631 
L 2766 1759 
L 2194 1759 
z
M 3341 1997 
L 3341 0 
L 2766 0 
L 2766 531 
Q 2569 213 2275 61 
Q 1981 -91 1556 -91 
Q 1019 -91 701 211 
Q 384 513 384 1019 
Q 384 1609 779 1909 
Q 1175 2209 1959 2209 
L 2766 2209 
L 2766 2266 
Q 2766 2663 2505 2880 
Q 2244 3097 1772 3097 
Q 1472 3097 1187 3025 
Q 903 2953 641 2809 
L 641 3341 
Q 956 3463 1253 3523 
Q 1550 3584 1831 3584 
Q 2591 3584 2966 3190 
Q 3341 2797 3341 1997 
z
" transform="scale(0.015625)"/>
        <path id="DejaVuSans-73" d="M 2834 3397 
L 2834 2853 
Q 2591 2978 2328 3040 
Q 2066 3103 1784 3103 
Q 1356 3103 1142 2972 
Q 928 2841 928 2578 
Q 928 2378 1081 2264 
Q 1234 2150 1697 2047 
L 1894 2003 
Q 2506 1872 2764 1633 
Q 3022 1394 3022 966 
Q 3022 478 2636 193 
Q 2250 -91 1575 -91 
Q 1294 -91 989 -36 
Q 684 19 347 128 
L 347 722 
Q 666 556 975 473 
Q 1284 391 1588 391 
Q 1994 391 2212 530 
Q 2431 669 2431 922 
Q 2431 1156 2273 1281 
Q 2116 1406 1581 1522 
L 1381 1569 
Q 847 1681 609 1914 
Q 372 2147 372 2553 
Q 372 3047 722 3315 
Q 1072 3584 1716 3584 
Q 2034 3584 2315 3537 
Q 2597 3491 2834 3397 
z
" transform="scale(0.015625)"/>
        <path id="DejaVuSans-74" d="M 1172 4494 
L 1172 3500 
L 2356 3500 
L 2356 3053 
L 1172 3053 
L 1172 1153 
Q 1172 725 1289 603 
Q 1406 481 1766 481 
L 2356 481 
L 2356 0 
L 1766 0 
Q 1100 0 847 248 
Q 594 497 594 1153 
L 594 3053 
L 172 3053 
L 172 3500 
L 594 3500 
L 594 4494 
L 1172 4494 
z
" transform="scale(0.015625)"/>
        <path id="DejaVuSans-43" d="M 4122 4306 
L 4122 3641 
Q 3803 3938 3442 4084 
Q 3081 4231 2675 4231 
Q 1875 4231 1450 3742 
Q 1025 3253 1025 2328 
Q 1025 1406 1450 917 
Q 1875 428 2675 428 
Q 3081 428 3442 575 
Q 3803 722 4122 1019 
L 4122 359 
Q 3791 134 3420 21 
Q 3050 -91 2638 -91 
Q 1578 -91 968 557 
Q 359 1206 359 2328 
Q 359 3453 968 4101 
Q 1578 4750 2638 4750 
Q 3056 4750 3426 4639 
Q 3797 4528 4122 4306 
z
" transform="scale(0.015625)"/>
        <path id="DejaVuSans-53" d="M 3425 4513 
L 3425 3897 
Q 3066 4069 2747 4153 
Q 2428 4238 2131 4238 
Q 1616 4238 1336 4038 
Q 1056 3838 1056 3469 
Q 1056 3159 1242 3001 
Q 1428 2844 1947 2747 
L 2328 2669 
Q 3034 2534 3370 2195 
Q 3706 1856 3706 1288 
Q 3706 609 3251 259 
Q 2797 -91 1919 -91 
Q 1588 -91 1214 -16 
Q 841 59 441 206 
L 441 856 
Q 825 641 1194 531 
Q 1563 422 1919 422 
Q 2459 422 2753 634 
Q 3047 847 3047 1241 
Q 3047 1584 2836 1778 
Q 2625 1972 2144 2069 
L 1759 2144 
Q 1053 2284 737 2584 
Q 422 2884 422 3419 
Q 422 4038 858 4394 
Q 1294 4750 2059 4750 
Q 2388 4750 2728 4690 
Q 3069 4631 3425 4513 
z
" transform="scale(0.015625)"/>
        <path id="DejaVuSans-56" d="M 1831 0 
L 50 4666 
L 709 4666 
L 2188 738 
L 3669 4666 
L 4325 4666 
L 2547 0 
L 1831 0 
z
" transform="scale(0.015625)"/>
        <path id="DejaVuSans-5f" d="M 3263 -1063 
L 3263 -1509 
L -63 -1509 
L -63 -1063 
L 3263 -1063 
z
" transform="scale(0.015625)"/>
        <path id="DejaVuSans-75" d="M 544 1381 
L 544 3500 
L 1119 3500 
L 1119 1403 
Q 1119 906 1312 657 
Q 1506 409 1894 409 
Q 2359 409 2629 706 
Q 2900 1003 2900 1516 
L 2900 3500 
L 3475 3500 
L 3475 0 
L 2900 0 
L 2900 538 
Q 2691 219 2414 64 
Q 2138 -91 1772 -91 
Q 1169 -91 856 284 
Q 544 659 544 1381 
z
M 1991 3584 
L 1991 3584 
z
" transform="scale(0.015625)"/>
        <path id="DejaVuSans-6d" d="M 3328 2828 
Q 3544 3216 3844 3400 
Q 4144 3584 4550 3584 
Q 5097 3584 5394 3201 
Q 5691 2819 5691 2113 
L 5691 0 
L 5113 0 
L 5113 2094 
Q 5113 2597 4934 2840 
Q 4756 3084 4391 3084 
Q 3944 3084 3684 2787 
Q 3425 2491 3425 1978 
L 3425 0 
L 2847 0 
L 2847 2094 
Q 2847 2600 2669 2842 
Q 2491 3084 2119 3084 
Q 1678 3084 1418 2786 
Q 1159 2488 1159 1978 
L 1159 0 
L 581 0 
L 581 3500 
L 1159 3500 
L 1159 2956 
Q 1356 3278 1631 3431 
Q 1906 3584 2284 3584 
Q 2666 3584 2933 3390 
Q 3200 3197 3328 2828 
z
" transform="scale(0.015625)"/>
       </defs>
       <use xlink:href="#DejaVuSans-46"/>
       <use xlink:href="#DejaVuSans-61" x="48.394531"/>
       <use xlink:href="#DejaVuSans-73" x="109.673828"/>
       <use xlink:href="#DejaVuSans-74" x="161.773438"/>
       <use xlink:href="#DejaVuSans-43" x="200.982422"/>
       <use xlink:href="#DejaVuSans-53" x="270.806641"/>
       <use xlink:href="#DejaVuSans-56" x="334.283203"/>
       <use xlink:href="#DejaVuSans-5f" x="402.691406"/>
       <use xlink:href="#DejaVuSans-73" x="452.691406"/>
       <use xlink:href="#DejaVuSans-75" x="504.791016"/>
       <use xlink:href="#DejaVuSans-6d" x="568.169922"/>
      </g>
     </g>
    </g>
    <g id="ytick_2">
     <g id="line2d_9">
      <g>
       <use xlink:href="#m60e3178102" x="398.51" y="371.513333" style="stroke: #000000; stroke-width: 0.8"/>
      </g>
     </g>
     <g id="text_10">
      <!-- Java-WebSocket_sum -->
      <g transform="translate(73.842812 382.91099)scale(0.3 -0.3)">
       <defs>
        <path id="DejaVuSans-4a" d="M 628 4666 
L 1259 4666 
L 1259 325 
Q 1259 -519 939 -900 
Q 619 -1281 -91 -1281 
L -331 -1281 
L -331 -750 
L -134 -750 
Q 284 -750 456 -515 
Q 628 -281 628 325 
L 628 4666 
z
" transform="scale(0.015625)"/>
        <path id="DejaVuSans-76" d="M 191 3500 
L 800 3500 
L 1894 563 
L 2988 3500 
L 3597 3500 
L 2284 0 
L 1503 0 
L 191 3500 
z
" transform="scale(0.015625)"/>
        <path id="DejaVuSans-2d" d="M 313 2009 
L 1997 2009 
L 1997 1497 
L 313 1497 
L 313 2009 
z
" transform="scale(0.015625)"/>
        <path id="DejaVuSans-57" d="M 213 4666 
L 850 4666 
L 1831 722 
L 2809 4666 
L 3519 4666 
L 4500 722 
L 5478 4666 
L 6119 4666 
L 4947 0 
L 4153 0 
L 3169 4050 
L 2175 0 
L 1381 0 
L 213 4666 
z
" transform="scale(0.015625)"/>
        <path id="DejaVuSans-65" d="M 3597 1894 
L 3597 1613 
L 953 1613 
Q 991 1019 1311 708 
Q 1631 397 2203 397 
Q 2534 397 2845 478 
Q 3156 559 3463 722 
L 3463 178 
Q 3153 47 2828 -22 
Q 2503 -91 2169 -91 
Q 1331 -91 842 396 
Q 353 884 353 1716 
Q 353 2575 817 3079 
Q 1281 3584 2069 3584 
Q 2775 3584 3186 3129 
Q 3597 2675 3597 1894 
z
M 3022 2063 
Q 3016 2534 2758 2815 
Q 2500 3097 2075 3097 
Q 1594 3097 1305 2825 
Q 1016 2553 972 2059 
L 3022 2063 
z
" transform="scale(0.015625)"/>
        <path id="DejaVuSans-62" d="M 3116 1747 
Q 3116 2381 2855 2742 
Q 2594 3103 2138 3103 
Q 1681 3103 1420 2742 
Q 1159 2381 1159 1747 
Q 1159 1113 1420 752 
Q 1681 391 2138 391 
Q 2594 391 2855 752 
Q 3116 1113 3116 1747 
z
M 1159 2969 
Q 1341 3281 1617 3432 
Q 1894 3584 2278 3584 
Q 2916 3584 3314 3078 
Q 3713 2572 3713 1747 
Q 3713 922 3314 415 
Q 2916 -91 2278 -91 
Q 1894 -91 1617 61 
Q 1341 213 1159 525 
L 1159 0 
L 581 0 
L 581 4863 
L 1159 4863 
L 1159 2969 
z
" transform="scale(0.015625)"/>
        <path id="DejaVuSans-6f" d="M 1959 3097 
Q 1497 3097 1228 2736 
Q 959 2375 959 1747 
Q 959 1119 1226 758 
Q 1494 397 1959 397 
Q 2419 397 2687 759 
Q 2956 1122 2956 1747 
Q 2956 2369 2687 2733 
Q 2419 3097 1959 3097 
z
M 1959 3584 
Q 2709 3584 3137 3096 
Q 3566 2609 3566 1747 
Q 3566 888 3137 398 
Q 2709 -91 1959 -91 
Q 1206 -91 779 398 
Q 353 888 353 1747 
Q 353 2609 779 3096 
Q 1206 3584 1959 3584 
z
" transform="scale(0.015625)"/>
        <path id="DejaVuSans-63" d="M 3122 3366 
L 3122 2828 
Q 2878 2963 2633 3030 
Q 2388 3097 2138 3097 
Q 1578 3097 1268 2742 
Q 959 2388 959 1747 
Q 959 1106 1268 751 
Q 1578 397 2138 397 
Q 2388 397 2633 464 
Q 2878 531 3122 666 
L 3122 134 
Q 2881 22 2623 -34 
Q 2366 -91 2075 -91 
Q 1284 -91 818 406 
Q 353 903 353 1747 
Q 353 2603 823 3093 
Q 1294 3584 2113 3584 
Q 2378 3584 2631 3529 
Q 2884 3475 3122 3366 
z
" transform="scale(0.015625)"/>
        <path id="DejaVuSans-6b" d="M 581 4863 
L 1159 4863 
L 1159 1991 
L 2875 3500 
L 3609 3500 
L 1753 1863 
L 3688 0 
L 2938 0 
L 1159 1709 
L 1159 0 
L 581 0 
L 581 4863 
z
" transform="scale(0.015625)"/>
       </defs>
       <use xlink:href="#DejaVuSans-4a"/>
       <use xlink:href="#DejaVuSans-61" x="29.492188"/>
       <use xlink:href="#DejaVuSans-76" x="90.771484"/>
       <use xlink:href="#DejaVuSans-61" x="149.951172"/>
       <use xlink:href="#DejaVuSans-2d" x="211.230469"/>
       <use xlink:href="#DejaVuSans-57" x="243.314453"/>
       <use xlink:href="#DejaVuSans-65" x="336.316406"/>
       <use xlink:href="#DejaVuSans-62" x="397.839844"/>
       <use xlink:href="#DejaVuSans-53" x="461.316406"/>
       <use xlink:href="#DejaVuSans-6f" x="524.792969"/>
       <use xlink:href="#DejaVuSans-63" x="585.974609"/>
       <use xlink:href="#DejaVuSans-6b" x="640.955078"/>
       <use xlink:href="#DejaVuSans-65" x="695.240234"/>
       <use xlink:href="#DejaVuSans-74" x="756.763672"/>
       <use xlink:href="#DejaVuSans-5f" x="795.972656"/>
       <use xlink:href="#DejaVuSans-73" x="845.972656"/>
       <use xlink:href="#DejaVuSans-75" x="898.072266"/>
       <use xlink:href="#DejaVuSans-6d" x="961.451172"/>
      </g>
     </g>
    </g>
    <g id="ytick_3">
     <g id="line2d_10">
      <g>
       <use xlink:href="#m60e3178102" x="398.51" y="260.766667" style="stroke: #000000; stroke-width: 0.8"/>
      </g>
     </g>
     <g id="text_11">
      <!-- spring-kafka_sum -->
      <g transform="translate(127.402188 272.164323)scale(0.3 -0.3)">
       <defs>
        <path id="DejaVuSans-70" d="M 1159 525 
L 1159 -1331 
L 581 -1331 
L 581 3500 
L 1159 3500 
L 1159 2969 
Q 1341 3281 1617 3432 
Q 1894 3584 2278 3584 
Q 2916 3584 3314 3078 
Q 3713 2572 3713 1747 
Q 3713 922 3314 415 
Q 2916 -91 2278 -91 
Q 1894 -91 1617 61 
Q 1341 213 1159 525 
z
M 3116 1747 
Q 3116 2381 2855 2742 
Q 2594 3103 2138 3103 
Q 1681 3103 1420 2742 
Q 1159 2381 1159 1747 
Q 1159 1113 1420 752 
Q 1681 391 2138 391 
Q 2594 391 2855 752 
Q 3116 1113 3116 1747 
z
" transform="scale(0.015625)"/>
        <path id="DejaVuSans-72" d="M 2631 2963 
Q 2534 3019 2420 3045 
Q 2306 3072 2169 3072 
Q 1681 3072 1420 2755 
Q 1159 2438 1159 1844 
L 1159 0 
L 581 0 
L 581 3500 
L 1159 3500 
L 1159 2956 
Q 1341 3275 1631 3429 
Q 1922 3584 2338 3584 
Q 2397 3584 2469 3576 
Q 2541 3569 2628 3553 
L 2631 2963 
z
" transform="scale(0.015625)"/>
        <path id="DejaVuSans-69" d="M 603 3500 
L 1178 3500 
L 1178 0 
L 603 0 
L 603 3500 
z
M 603 4863 
L 1178 4863 
L 1178 4134 
L 603 4134 
L 603 4863 
z
" transform="scale(0.015625)"/>
        <path id="DejaVuSans-6e" d="M 3513 2113 
L 3513 0 
L 2938 0 
L 2938 2094 
Q 2938 2591 2744 2837 
Q 2550 3084 2163 3084 
Q 1697 3084 1428 2787 
Q 1159 2491 1159 1978 
L 1159 0 
L 581 0 
L 581 3500 
L 1159 3500 
L 1159 2956 
Q 1366 3272 1645 3428 
Q 1925 3584 2291 3584 
Q 2894 3584 3203 3211 
Q 3513 2838 3513 2113 
z
" transform="scale(0.015625)"/>
        <path id="DejaVuSans-67" d="M 2906 1791 
Q 2906 2416 2648 2759 
Q 2391 3103 1925 3103 
Q 1463 3103 1205 2759 
Q 947 2416 947 1791 
Q 947 1169 1205 825 
Q 1463 481 1925 481 
Q 2391 481 2648 825 
Q 2906 1169 2906 1791 
z
M 3481 434 
Q 3481 -459 3084 -895 
Q 2688 -1331 1869 -1331 
Q 1566 -1331 1297 -1286 
Q 1028 -1241 775 -1147 
L 775 -588 
Q 1028 -725 1275 -790 
Q 1522 -856 1778 -856 
Q 2344 -856 2625 -561 
Q 2906 -266 2906 331 
L 2906 616 
Q 2728 306 2450 153 
Q 2172 0 1784 0 
Q 1141 0 747 490 
Q 353 981 353 1791 
Q 353 2603 747 3093 
Q 1141 3584 1784 3584 
Q 2172 3584 2450 3431 
Q 2728 3278 2906 2969 
L 2906 3500 
L 3481 3500 
L 3481 434 
z
" transform="scale(0.015625)"/>
        <path id="DejaVuSans-66" d="M 2375 4863 
L 2375 4384 
L 1825 4384 
Q 1516 4384 1395 4259 
Q 1275 4134 1275 3809 
L 1275 3500 
L 2222 3500 
L 2222 3053 
L 1275 3053 
L 1275 0 
L 697 0 
L 697 3053 
L 147 3053 
L 147 3500 
L 697 3500 
L 697 3744 
Q 697 4328 969 4595 
Q 1241 4863 1831 4863 
L 2375 4863 
z
" transform="scale(0.015625)"/>
       </defs>
       <use xlink:href="#DejaVuSans-73"/>
       <use xlink:href="#DejaVuSans-70" x="52.099609"/>
       <use xlink:href="#DejaVuSans-72" x="115.576172"/>
       <use xlink:href="#DejaVuSans-69" x="156.689453"/>
       <use xlink:href="#DejaVuSans-6e" x="184.472656"/>
       <use xlink:href="#DejaVuSans-67" x="247.851562"/>
       <use xlink:href="#DejaVuSans-2d" x="311.328125"/>
       <use xlink:href="#DejaVuSans-6b" x="347.412109"/>
       <use xlink:href="#DejaVuSans-61" x="403.572266"/>
       <use xlink:href="#DejaVuSans-66" x="464.851562"/>
       <use xlink:href="#DejaVuSans-6b" x="500.056641"/>
       <use xlink:href="#DejaVuSans-61" x="556.216797"/>
       <use xlink:href="#DejaVuSans-5f" x="617.496094"/>
       <use xlink:href="#DejaVuSans-73" x="667.496094"/>
       <use xlink:href="#DejaVuSans-75" x="719.595703"/>
       <use xlink:href="#DejaVuSans-6d" x="782.974609"/>
      </g>
     </g>
    </g>
    <g id="ytick_4">
     <g id="line2d_11">
      <g>
       <use xlink:href="#m60e3178102" x="398.51" y="150.02" style="stroke: #000000; stroke-width: 0.8"/>
      </g>
     </g>
     <g id="text_12">
      <!-- mockito_sum -->
      <g transform="translate(192.750625 161.417656)scale(0.3 -0.3)">
       <use xlink:href="#DejaVuSans-6d"/>
       <use xlink:href="#DejaVuSans-6f" x="97.412109"/>
       <use xlink:href="#DejaVuSans-63" x="158.59375"/>
       <use xlink:href="#DejaVuSans-6b" x="213.574219"/>
       <use xlink:href="#DejaVuSans-69" x="271.484375"/>
       <use xlink:href="#DejaVuSans-74" x="299.267578"/>
       <use xlink:href="#DejaVuSans-6f" x="338.476562"/>
       <use xlink:href="#DejaVuSans-5f" x="399.658203"/>
       <use xlink:href="#DejaVuSans-73" x="449.658203"/>
       <use xlink:href="#DejaVuSans-75" x="501.757812"/>
       <use xlink:href="#DejaVuSans-6d" x="565.136719"/>
      </g>
     </g>
    </g>
    <g id="text_13">
     <!-- Repositories -->
     <g transform="translate(57.60375 565.32)rotate(-90)scale(0.3 -0.3)">
      <defs>
       <path id="DejaVuSans-Bold-52" d="M 2297 2597 
Q 2675 2597 2839 2737 
Q 3003 2878 3003 3200 
Q 3003 3519 2839 3656 
Q 2675 3794 2297 3794 
L 1791 3794 
L 1791 2597 
L 2297 2597 
z
M 1791 1766 
L 1791 0 
L 588 0 
L 588 4666 
L 2425 4666 
Q 3347 4666 3776 4356 
Q 4206 4047 4206 3378 
Q 4206 2916 3982 2619 
Q 3759 2322 3309 2181 
Q 3556 2125 3751 1926 
Q 3947 1728 4147 1325 
L 4800 0 
L 3519 0 
L 2950 1159 
Q 2778 1509 2601 1637 
Q 2425 1766 2131 1766 
L 1791 1766 
z
" transform="scale(0.015625)"/>
       <path id="DejaVuSans-Bold-70" d="M 1656 506 
L 1656 -1331 
L 538 -1331 
L 538 3500 
L 1656 3500 
L 1656 2988 
Q 1888 3294 2169 3439 
Q 2450 3584 2816 3584 
Q 3463 3584 3878 3070 
Q 4294 2556 4294 1747 
Q 4294 938 3878 423 
Q 3463 -91 2816 -91 
Q 2450 -91 2169 54 
Q 1888 200 1656 506 
z
M 2400 2772 
Q 2041 2772 1848 2508 
Q 1656 2244 1656 1747 
Q 1656 1250 1848 986 
Q 2041 722 2400 722 
Q 2759 722 2948 984 
Q 3138 1247 3138 1747 
Q 3138 2247 2948 2509 
Q 2759 2772 2400 2772 
z
" transform="scale(0.015625)"/>
       <path id="DejaVuSans-Bold-6f" d="M 2203 2784 
Q 1831 2784 1636 2517 
Q 1441 2250 1441 1747 
Q 1441 1244 1636 976 
Q 1831 709 2203 709 
Q 2569 709 2762 976 
Q 2956 1244 2956 1747 
Q 2956 2250 2762 2517 
Q 2569 2784 2203 2784 
z
M 2203 3584 
Q 3106 3584 3614 3096 
Q 4122 2609 4122 1747 
Q 4122 884 3614 396 
Q 3106 -91 2203 -91 
Q 1297 -91 786 396 
Q 275 884 275 1747 
Q 275 2609 786 3096 
Q 1297 3584 2203 3584 
z
" transform="scale(0.015625)"/>
      </defs>
      <use xlink:href="#DejaVuSans-Bold-52"/>
      <use xlink:href="#DejaVuSans-Bold-65" x="77.001953"/>
      <use xlink:href="#DejaVuSans-Bold-70" x="144.824219"/>
      <use xlink:href="#DejaVuSans-Bold-6f" x="216.40625"/>
      <use xlink:href="#DejaVuSans-Bold-73" x="285.107422"/>
      <use xlink:href="#DejaVuSans-Bold-69" x="344.628906"/>
      <use xlink:href="#DejaVuSans-Bold-74" x="378.90625"/>
      <use xlink:href="#DejaVuSans-Bold-6f" x="426.708984"/>
      <use xlink:href="#DejaVuSans-Bold-72" x="495.410156"/>
      <use xlink:href="#DejaVuSans-Bold-69" x="544.726562"/>
      <use xlink:href="#DejaVuSans-Bold-65" x="579.003906"/>
      <use xlink:href="#DejaVuSans-Bold-73" x="646.826172"/>
     </g>
    </g>
   </g>
   <g id="patch_7">
    <path d="M 398.51 565.32 
L 398.51 66.96 
" style="fill: none; stroke: #000000; stroke-width: 0.8; stroke-linejoin: miter; stroke-linecap: square"/>
   </g>
   <g id="patch_8">
    <path d="M 1407.6 565.32 
L 1407.6 66.96 
" style="fill: none; stroke: #000000; stroke-width: 0.8; stroke-linejoin: miter; stroke-linecap: square"/>
   </g>
   <g id="patch_9">
    <path d="M 398.51 565.32 
L 1407.6 565.32 
" style="fill: none; stroke: #000000; stroke-width: 0.8; stroke-linejoin: miter; stroke-linecap: square"/>
   </g>
   <g id="patch_10">
    <path d="M 398.51 66.96 
L 1407.6 66.96 
" style="fill: none; stroke: #000000; stroke-width: 0.8; stroke-linejoin: miter; stroke-linecap: square"/>
   </g>
   <g id="text_14">
    <!-- 215 -->
    <g transform="translate(436.256838 490.538125)scale(0.3 -0.3)">
     <defs>
      <path id="DejaVuSans-Bold-32" d="M 1844 884 
L 3897 884 
L 3897 0 
L 506 0 
L 506 884 
L 2209 2388 
Q 2438 2594 2547 2791 
Q 2656 2988 2656 3200 
Q 2656 3528 2436 3728 
Q 2216 3928 1850 3928 
Q 1569 3928 1234 3808 
Q 900 3688 519 3450 
L 519 4475 
Q 925 4609 1322 4679 
Q 1719 4750 2100 4750 
Q 2938 4750 3402 4381 
Q 3866 4013 3866 3353 
Q 3866 2972 3669 2642 
Q 3472 2313 2841 1759 
L 1844 884 
z
" transform="scale(0.015625)"/>
      <path id="DejaVuSans-Bold-31" d="M 750 831 
L 1813 831 
L 1813 3847 
L 722 3622 
L 722 4441 
L 1806 4666 
L 2950 4666 
L 2950 831 
L 4013 831 
L 4013 0 
L 750 0 
L 750 831 
z
" transform="scale(0.015625)"/>
      <path id="DejaVuSans-Bold-35" d="M 678 4666 
L 3669 4666 
L 3669 3781 
L 1638 3781 
L 1638 3059 
Q 1775 3097 1914 3117 
Q 2053 3138 2203 3138 
Q 3056 3138 3531 2711 
Q 4006 2284 4006 1522 
Q 4006 766 3489 337 
Q 2972 -91 2053 -91 
Q 1656 -91 1267 -14 
Q 878 63 494 219 
L 494 1166 
Q 875 947 1217 837 
Q 1559 728 1863 728 
Q 2300 728 2551 942 
Q 2803 1156 2803 1522 
Q 2803 1891 2551 2103 
Q 2300 2316 1863 2316 
Q 1603 2316 1309 2248 
Q 1016 2181 678 2041 
L 678 4666 
z
" transform="scale(0.015625)"/>
     </defs>
     <use xlink:href="#DejaVuSans-Bold-32"/>
     <use xlink:href="#DejaVuSans-Bold-31" x="69.580078"/>
     <use xlink:href="#DejaVuSans-Bold-35" x="139.160156"/>
    </g>
   </g>
   <g id="text_15">
    <!-- 1557 -->
    <g transform="translate(640.65803 379.791458)scale(0.3 -0.3)">
     <defs>
      <path id="DejaVuSans-Bold-37" d="M 428 4666 
L 3944 4666 
L 3944 3988 
L 2125 0 
L 953 0 
L 2675 3781 
L 428 3781 
L 428 4666 
z
" transform="scale(0.015625)"/>
     </defs>
     <use xlink:href="#DejaVuSans-Bold-31"/>
     <use xlink:href="#DejaVuSans-Bold-35" x="69.580078"/>
     <use xlink:href="#DejaVuSans-Bold-35" x="139.160156"/>
     <use xlink:href="#DejaVuSans-Bold-37" x="208.740234"/>
    </g>
   </g>
   <g id="text_16">
    <!-- 3447 -->
    <g transform="translate(928.525581 269.044792)scale(0.3 -0.3)">
     <defs>
      <path id="DejaVuSans-Bold-33" d="M 2981 2516 
Q 3453 2394 3698 2092 
Q 3944 1791 3944 1325 
Q 3944 631 3412 270 
Q 2881 -91 1863 -91 
Q 1503 -91 1142 -33 
Q 781 25 428 141 
L 428 1069 
Q 766 900 1098 814 
Q 1431 728 1753 728 
Q 2231 728 2486 893 
Q 2741 1059 2741 1369 
Q 2741 1688 2480 1852 
Q 2219 2016 1709 2016 
L 1228 2016 
L 1228 2791 
L 1734 2791 
Q 2188 2791 2409 2933 
Q 2631 3075 2631 3366 
Q 2631 3634 2415 3781 
Q 2200 3928 1806 3928 
Q 1516 3928 1219 3862 
Q 922 3797 628 3669 
L 628 4550 
Q 984 4650 1334 4700 
Q 1684 4750 2022 4750 
Q 2931 4750 3382 4451 
Q 3834 4153 3834 3553 
Q 3834 3144 3618 2883 
Q 3403 2622 2981 2516 
z
" transform="scale(0.015625)"/>
      <path id="DejaVuSans-Bold-34" d="M 2356 3675 
L 1038 1722 
L 2356 1722 
L 2356 3675 
z
M 2156 4666 
L 3494 4666 
L 3494 1722 
L 4159 1722 
L 4159 850 
L 3494 850 
L 3494 0 
L 2356 0 
L 2356 850 
L 288 850 
L 288 1881 
L 2156 4666 
z
" transform="scale(0.015625)"/>
     </defs>
     <use xlink:href="#DejaVuSans-Bold-33"/>
     <use xlink:href="#DejaVuSans-Bold-34" x="69.580078"/>
     <use xlink:href="#DejaVuSans-Bold-34" x="139.160156"/>
     <use xlink:href="#DejaVuSans-Bold-37" x="208.740234"/>
    </g>
   </g>
   <g id="text_17">
    <!-- 5521 -->
    <g transform="translate(1244.418333 158.298125)scale(0.3 -0.3)">
     <use xlink:href="#DejaVuSans-Bold-35"/>
     <use xlink:href="#DejaVuSans-Bold-35" x="69.580078"/>
     <use xlink:href="#DejaVuSans-Bold-32" x="139.160156"/>
     <use xlink:href="#DejaVuSans-Bold-31" x="208.740234"/>
    </g>
   </g>
   <g id="text_18">
    <!-- NPM - Number of Public Methods - Sum -->
    <g transform="translate(549.985 59.473125)scale(0.36 -0.36)">
     <defs>
      <path id="DejaVuSans-4e" d="M 628 4666 
L 1478 4666 
L 3547 763 
L 3547 4666 
L 4159 4666 
L 4159 0 
L 3309 0 
L 1241 3903 
L 1241 0 
L 628 0 
L 628 4666 
z
" transform="scale(0.015625)"/>
      <path id="DejaVuSans-50" d="M 1259 4147 
L 1259 2394 
L 2053 2394 
Q 2494 2394 2734 2622 
Q 2975 2850 2975 3272 
Q 2975 3691 2734 3919 
Q 2494 4147 2053 4147 
L 1259 4147 
z
M 628 4666 
L 2053 4666 
Q 2838 4666 3239 4311 
Q 3641 3956 3641 3272 
Q 3641 2581 3239 2228 
Q 2838 1875 2053 1875 
L 1259 1875 
L 1259 0 
L 628 0 
L 628 4666 
z
" transform="scale(0.015625)"/>
      <path id="DejaVuSans-4d" d="M 628 4666 
L 1569 4666 
L 2759 1491 
L 3956 4666 
L 4897 4666 
L 4897 0 
L 4281 0 
L 4281 4097 
L 3078 897 
L 2444 897 
L 1241 4097 
L 1241 0 
L 628 0 
L 628 4666 
z
" transform="scale(0.015625)"/>
      <path id="DejaVuSans-20" transform="scale(0.015625)"/>
      <path id="DejaVuSans-6c" d="M 603 4863 
L 1178 4863 
L 1178 0 
L 603 0 
L 603 4863 
z
" transform="scale(0.015625)"/>
      <path id="DejaVuSans-68" d="M 3513 2113 
L 3513 0 
L 2938 0 
L 2938 2094 
Q 2938 2591 2744 2837 
Q 2550 3084 2163 3084 
Q 1697 3084 1428 2787 
Q 1159 2491 1159 1978 
L 1159 0 
L 581 0 
L 581 4863 
L 1159 4863 
L 1159 2956 
Q 1366 3272 1645 3428 
Q 1925 3584 2291 3584 
Q 2894 3584 3203 3211 
Q 3513 2838 3513 2113 
z
" transform="scale(0.015625)"/>
      <path id="DejaVuSans-64" d="M 2906 2969 
L 2906 4863 
L 3481 4863 
L 3481 0 
L 2906 0 
L 2906 525 
Q 2725 213 2448 61 
Q 2172 -91 1784 -91 
Q 1150 -91 751 415 
Q 353 922 353 1747 
Q 353 2572 751 3078 
Q 1150 3584 1784 3584 
Q 2172 3584 2448 3432 
Q 2725 3281 2906 2969 
z
M 947 1747 
Q 947 1113 1208 752 
Q 1469 391 1925 391 
Q 2381 391 2643 752 
Q 2906 1113 2906 1747 
Q 2906 2381 2643 2742 
Q 2381 3103 1925 3103 
Q 1469 3103 1208 2742 
Q 947 2381 947 1747 
z
" transform="scale(0.015625)"/>
     </defs>
     <use xlink:href="#DejaVuSans-4e"/>
     <use xlink:href="#DejaVuSans-50" x="74.804688"/>
     <use xlink:href="#DejaVuSans-4d" x="135.107422"/>
     <use xlink:href="#DejaVuSans-20" x="221.386719"/>
     <use xlink:href="#DejaVuSans-2d" x="253.173828"/>
     <use xlink:href="#DejaVuSans-20" x="289.257812"/>
     <use xlink:href="#DejaVuSans-4e" x="321.044922"/>
     <use xlink:href="#DejaVuSans-75" x="395.849609"/>
     <use xlink:href="#DejaVuSans-6d" x="459.228516"/>
     <use xlink:href="#DejaVuSans-62" x="556.640625"/>
     <use xlink:href="#DejaVuSans-65" x="620.117188"/>
     <use xlink:href="#DejaVuSans-72" x="681.640625"/>
     <use xlink:href="#DejaVuSans-20" x="722.753906"/>
     <use xlink:href="#DejaVuSans-6f" x="754.541016"/>
     <use xlink:href="#DejaVuSans-66" x="815.722656"/>
     <use xlink:href="#DejaVuSans-20" x="850.927734"/>
     <use xlink:href="#DejaVuSans-50" x="882.714844"/>
     <use xlink:href="#DejaVuSans-75" x="941.267578"/>
     <use xlink:href="#DejaVuSans-62" x="1004.646484"/>
     <use xlink:href="#DejaVuSans-6c" x="1068.123047"/>
     <use xlink:href="#DejaVuSans-69" x="1095.90625"/>
     <use xlink:href="#DejaVuSans-63" x="1123.689453"/>
     <use xlink:href="#DejaVuSans-20" x="1178.669922"/>
     <use xlink:href="#DejaVuSans-4d" x="1210.457031"/>
     <use xlink:href="#DejaVuSans-65" x="1296.736328"/>
     <use xlink:href="#DejaVuSans-74" x="1358.259766"/>
     <use xlink:href="#DejaVuSans-68" x="1397.46875"/>
     <use xlink:href="#DejaVuSans-6f" x="1460.847656"/>
     <use xlink:href="#DejaVuSans-64" x="1522.029297"/>
     <use xlink:href="#DejaVuSans-73" x="1585.505859"/>
     <use xlink:href="#DejaVuSans-20" x="1637.605469"/>
     <use xlink:href="#DejaVuSans-2d" x="1669.392578"/>
     <use xlink:href="#DejaVuSans-20" x="1705.476562"/>
     <use xlink:href="#DejaVuSans-53" x="1737.263672"/>
     <use xlink:href="#DejaVuSans-75" x="1800.740234"/>
     <use xlink:href="#DejaVuSans-6d" x="1864.119141"/>
    </g>
   </g>
  </g>
  <g id="axes_2">
   <g id="patch_11">
    <path d="M 398.51 1235.72 
L 1407.6 1235.72 
L 1407.6 737.36 
L 398.51 737.36 
z
" style="fill: #ffffff"/>
   </g>
   <g id="patch_12">
    <path d="M 398.51 1180.346667 
L 481.768251 1180.346667 
L 481.768251 1124.973333 
L 398.51 1124.973333 
z
" clip-path="url(#p0b9b547dd5)" style="fill: #1f77b4"/>
   </g>
   <g id="patch_13">
    <path d="M 398.51 1069.6 
L 1239.418333 1069.6 
L 1239.418333 1014.226667 
L 398.51 1014.226667 
z
" clip-path="url(#p0b9b547dd5)" style="fill: #ff7f0e"/>
   </g>
   <g id="patch_14">
    <path d="M 398.51 958.853333 
L 959.115556 958.853333 
L 959.115556 903.48 
L 398.51 903.48 
z
" clip-path="url(#p0b9b547dd5)" style="fill: #2ca02c"/>
   </g>
   <g id="patch_15">
    <path d="M 398.51 848.106667 
L 759.295754 848.106667 
L 759.295754 792.733333 
L 398.51 792.733333 
z
" clip-path="url(#p0b9b547dd5)" style="fill: #d62728"/>
   </g>
   <g id="matplotlib.axis_3">
    <g id="xtick_8">
     <g id="line2d_12">
      <g>
       <use xlink:href="#m4c572c20bb" x="398.51" y="1235.72" style="stroke: #000000; stroke-width: 0.8"/>
      </g>
     </g>
     <g id="text_19">
      <!-- 0 -->
      <g transform="translate(388.96625 1265.515312)scale(0.3 -0.3)">
       <use xlink:href="#DejaVuSans-30"/>
      </g>
     </g>
    </g>
    <g id="xtick_9">
     <g id="line2d_13">
      <g>
       <use xlink:href="#m4c572c20bb" x="537.273751" y="1235.72" style="stroke: #000000; stroke-width: 0.8"/>
      </g>
     </g>
     <g id="text_20">
      <!-- 50 -->
      <g transform="translate(518.186251 1265.515312)scale(0.3 -0.3)">
       <use xlink:href="#DejaVuSans-35"/>
       <use xlink:href="#DejaVuSans-30" x="63.623047"/>
      </g>
     </g>
    </g>
    <g id="xtick_10">
     <g id="line2d_14">
      <g>
       <use xlink:href="#m4c572c20bb" x="676.037503" y="1235.72" style="stroke: #000000; stroke-width: 0.8"/>
      </g>
     </g>
     <g id="text_21">
      <!-- 100 -->
      <g transform="translate(647.406253 1265.515312)scale(0.3 -0.3)">
       <use xlink:href="#DejaVuSans-31"/>
       <use xlink:href="#DejaVuSans-30" x="63.623047"/>
       <use xlink:href="#DejaVuSans-30" x="127.246094"/>
      </g>
     </g>
    </g>
    <g id="xtick_11">
     <g id="line2d_15">
      <g>
       <use xlink:href="#m4c572c20bb" x="814.801254" y="1235.72" style="stroke: #000000; stroke-width: 0.8"/>
      </g>
     </g>
     <g id="text_22">
      <!-- 150 -->
      <g transform="translate(786.170004 1265.515312)scale(0.3 -0.3)">
       <use xlink:href="#DejaVuSans-31"/>
       <use xlink:href="#DejaVuSans-35" x="63.623047"/>
       <use xlink:href="#DejaVuSans-30" x="127.246094"/>
      </g>
     </g>
    </g>
    <g id="xtick_12">
     <g id="line2d_16">
      <g>
       <use xlink:href="#m4c572c20bb" x="953.565006" y="1235.72" style="stroke: #000000; stroke-width: 0.8"/>
      </g>
     </g>
     <g id="text_23">
      <!-- 200 -->
      <g transform="translate(924.933756 1265.515312)scale(0.3 -0.3)">
       <use xlink:href="#DejaVuSans-32"/>
       <use xlink:href="#DejaVuSans-30" x="63.623047"/>
       <use xlink:href="#DejaVuSans-30" x="127.246094"/>
      </g>
     </g>
    </g>
    <g id="xtick_13">
     <g id="line2d_17">
      <g>
       <use xlink:href="#m4c572c20bb" x="1092.328757" y="1235.72" style="stroke: #000000; stroke-width: 0.8"/>
      </g>
     </g>
     <g id="text_24">
      <!-- 250 -->
      <g transform="translate(1063.697507 1265.515312)scale(0.3 -0.3)">
       <use xlink:href="#DejaVuSans-32"/>
       <use xlink:href="#DejaVuSans-35" x="63.623047"/>
       <use xlink:href="#DejaVuSans-30" x="127.246094"/>
      </g>
     </g>
    </g>
    <g id="xtick_14">
     <g id="line2d_18">
      <g>
       <use xlink:href="#m4c572c20bb" x="1231.092508" y="1235.72" style="stroke: #000000; stroke-width: 0.8"/>
      </g>
     </g>
     <g id="text_25">
      <!-- 300 -->
      <g transform="translate(1202.461258 1265.515312)scale(0.3 -0.3)">
       <use xlink:href="#DejaVuSans-33"/>
       <use xlink:href="#DejaVuSans-30" x="63.623047"/>
       <use xlink:href="#DejaVuSans-30" x="127.246094"/>
      </g>
     </g>
    </g>
    <g id="xtick_15">
     <g id="line2d_19">
      <g>
       <use xlink:href="#m4c572c20bb" x="1369.85626" y="1235.72" style="stroke: #000000; stroke-width: 0.8"/>
      </g>
     </g>
     <g id="text_26">
      <!-- 350 -->
      <g transform="translate(1341.22501 1265.515312)scale(0.3 -0.3)">
       <use xlink:href="#DejaVuSans-33"/>
       <use xlink:href="#DejaVuSans-35" x="63.623047"/>
       <use xlink:href="#DejaVuSans-30" x="127.246094"/>
      </g>
     </g>
    </g>
    <g id="text_27">
     <!-- Metric Values -->
     <g transform="translate(398.51 1304.549687)scale(0.3 -0.3)">
      <use xlink:href="#DejaVuSans-Bold-4d"/>
      <use xlink:href="#DejaVuSans-Bold-65" x="99.511719"/>
      <use xlink:href="#DejaVuSans-Bold-74" x="167.333984"/>
      <use xlink:href="#DejaVuSans-Bold-72" x="215.136719"/>
      <use xlink:href="#DejaVuSans-Bold-69" x="264.453125"/>
      <use xlink:href="#DejaVuSans-Bold-63" x="298.730469"/>
      <use xlink:href="#DejaVuSans-Bold-20" x="358.007812"/>
      <use xlink:href="#DejaVuSans-Bold-56" x="392.822266"/>
      <use xlink:href="#DejaVuSans-Bold-61" x="464.714844"/>
      <use xlink:href="#DejaVuSans-Bold-6c" x="532.195312"/>
      <use xlink:href="#DejaVuSans-Bold-75" x="566.472656"/>
      <use xlink:href="#DejaVuSans-Bold-65" x="637.664062"/>
      <use xlink:href="#DejaVuSans-Bold-73" x="705.486328"/>
     </g>
    </g>
   </g>
   <g id="matplotlib.axis_4">
    <g id="ytick_5">
     <g id="line2d_20">
      <g>
       <use xlink:href="#m60e3178102" x="398.51" y="1152.66" style="stroke: #000000; stroke-width: 0.8"/>
      </g>
     </g>
     <g id="text_28">
      <!-- FastCSV_max -->
      <g transform="translate(190.34125 1163.792812)scale(0.3 -0.3)">
       <defs>
        <path id="DejaVuSans-78" d="M 3513 3500 
L 2247 1797 
L 3578 0 
L 2900 0 
L 1881 1375 
L 863 0 
L 184 0 
L 1544 1831 
L 300 3500 
L 978 3500 
L 1906 2253 
L 2834 3500 
L 3513 3500 
z
" transform="scale(0.015625)"/>
       </defs>
       <use xlink:href="#DejaVuSans-46"/>
       <use xlink:href="#DejaVuSans-61" x="48.394531"/>
       <use xlink:href="#DejaVuSans-73" x="109.673828"/>
       <use xlink:href="#DejaVuSans-74" x="161.773438"/>
       <use xlink:href="#DejaVuSans-43" x="200.982422"/>
       <use xlink:href="#DejaVuSans-53" x="270.806641"/>
       <use xlink:href="#DejaVuSans-56" x="334.283203"/>
       <use xlink:href="#DejaVuSans-5f" x="402.691406"/>
       <use xlink:href="#DejaVuSans-6d" x="452.691406"/>
       <use xlink:href="#DejaVuSans-61" x="550.103516"/>
       <use xlink:href="#DejaVuSans-78" x="611.382812"/>
      </g>
     </g>
    </g>
    <g id="ytick_6">
     <g id="line2d_21">
      <g>
       <use xlink:href="#m60e3178102" x="398.51" y="1041.913333" style="stroke: #000000; stroke-width: 0.8"/>
      </g>
     </g>
     <g id="text_29">
      <!-- Java-WebSocket_max -->
      <g transform="translate(72.342812 1053.31099)scale(0.3 -0.3)">
       <use xlink:href="#DejaVuSans-4a"/>
       <use xlink:href="#DejaVuSans-61" x="29.492188"/>
       <use xlink:href="#DejaVuSans-76" x="90.771484"/>
       <use xlink:href="#DejaVuSans-61" x="149.951172"/>
       <use xlink:href="#DejaVuSans-2d" x="211.230469"/>
       <use xlink:href="#DejaVuSans-57" x="243.314453"/>
       <use xlink:href="#DejaVuSans-65" x="336.316406"/>
       <use xlink:href="#DejaVuSans-62" x="397.839844"/>
       <use xlink:href="#DejaVuSans-53" x="461.316406"/>
       <use xlink:href="#DejaVuSans-6f" x="524.792969"/>
       <use xlink:href="#DejaVuSans-63" x="585.974609"/>
       <use xlink:href="#DejaVuSans-6b" x="640.955078"/>
       <use xlink:href="#DejaVuSans-65" x="695.240234"/>
       <use xlink:href="#DejaVuSans-74" x="756.763672"/>
       <use xlink:href="#DejaVuSans-5f" x="795.972656"/>
       <use xlink:href="#DejaVuSans-6d" x="845.972656"/>
       <use xlink:href="#DejaVuSans-61" x="943.384766"/>
       <use xlink:href="#DejaVuSans-78" x="1004.664062"/>
      </g>
     </g>
    </g>
    <g id="ytick_7">
     <g id="line2d_22">
      <g>
       <use xlink:href="#m60e3178102" x="398.51" y="931.166667" style="stroke: #000000; stroke-width: 0.8"/>
      </g>
     </g>
     <g id="text_30">
      <!-- spring-kafka_max -->
      <g transform="translate(125.902188 942.564323)scale(0.3 -0.3)">
       <use xlink:href="#DejaVuSans-73"/>
       <use xlink:href="#DejaVuSans-70" x="52.099609"/>
       <use xlink:href="#DejaVuSans-72" x="115.576172"/>
       <use xlink:href="#DejaVuSans-69" x="156.689453"/>
       <use xlink:href="#DejaVuSans-6e" x="184.472656"/>
       <use xlink:href="#DejaVuSans-67" x="247.851562"/>
       <use xlink:href="#DejaVuSans-2d" x="311.328125"/>
       <use xlink:href="#DejaVuSans-6b" x="347.412109"/>
       <use xlink:href="#DejaVuSans-61" x="403.572266"/>
       <use xlink:href="#DejaVuSans-66" x="464.851562"/>
       <use xlink:href="#DejaVuSans-6b" x="500.056641"/>
       <use xlink:href="#DejaVuSans-61" x="556.216797"/>
       <use xlink:href="#DejaVuSans-5f" x="617.496094"/>
       <use xlink:href="#DejaVuSans-6d" x="667.496094"/>
       <use xlink:href="#DejaVuSans-61" x="764.908203"/>
       <use xlink:href="#DejaVuSans-78" x="826.1875"/>
      </g>
     </g>
    </g>
    <g id="ytick_8">
     <g id="line2d_23">
      <g>
       <use xlink:href="#m60e3178102" x="398.51" y="820.42" style="stroke: #000000; stroke-width: 0.8"/>
      </g>
     </g>
     <g id="text_31">
      <!-- mockito_max -->
      <g transform="translate(191.250625 831.817656)scale(0.3 -0.3)">
       <use xlink:href="#DejaVuSans-6d"/>
       <use xlink:href="#DejaVuSans-6f" x="97.412109"/>
       <use xlink:href="#DejaVuSans-63" x="158.59375"/>
       <use xlink:href="#DejaVuSans-6b" x="213.574219"/>
       <use xlink:href="#DejaVuSans-69" x="271.484375"/>
       <use xlink:href="#DejaVuSans-74" x="299.267578"/>
       <use xlink:href="#DejaVuSans-6f" x="338.476562"/>
       <use xlink:href="#DejaVuSans-5f" x="399.658203"/>
       <use xlink:href="#DejaVuSans-6d" x="449.658203"/>
       <use xlink:href="#DejaVuSans-61" x="547.070312"/>
       <use xlink:href="#DejaVuSans-78" x="608.349609"/>
      </g>
     </g>
    </g>
    <g id="text_32">
     <!-- Repositories -->
     <g transform="translate(56.10375 1235.72)rotate(-90)scale(0.3 -0.3)">
      <use xlink:href="#DejaVuSans-Bold-52"/>
      <use xlink:href="#DejaVuSans-Bold-65" x="77.001953"/>
      <use xlink:href="#DejaVuSans-Bold-70" x="144.824219"/>
      <use xlink:href="#DejaVuSans-Bold-6f" x="216.40625"/>
      <use xlink:href="#DejaVuSans-Bold-73" x="285.107422"/>
      <use xlink:href="#DejaVuSans-Bold-69" x="344.628906"/>
      <use xlink:href="#DejaVuSans-Bold-74" x="378.90625"/>
      <use xlink:href="#DejaVuSans-Bold-6f" x="426.708984"/>
      <use xlink:href="#DejaVuSans-Bold-72" x="495.410156"/>
      <use xlink:href="#DejaVuSans-Bold-69" x="544.726562"/>
      <use xlink:href="#DejaVuSans-Bold-65" x="579.003906"/>
      <use xlink:href="#DejaVuSans-Bold-73" x="646.826172"/>
     </g>
    </g>
   </g>
   <g id="patch_16">
    <path d="M 398.51 1235.72 
L 398.51 737.36 
" style="fill: none; stroke: #000000; stroke-width: 0.8; stroke-linejoin: miter; stroke-linecap: square"/>
   </g>
   <g id="patch_17">
    <path d="M 1407.6 1235.72 
L 1407.6 737.36 
" style="fill: none; stroke: #000000; stroke-width: 0.8; stroke-linejoin: miter; stroke-linecap: square"/>
   </g>
   <g id="patch_18">
    <path d="M 398.51 1235.72 
L 1407.6 1235.72 
" style="fill: none; stroke: #000000; stroke-width: 0.8; stroke-linejoin: miter; stroke-linecap: square"/>
   </g>
   <g id="patch_19">
    <path d="M 398.51 737.36 
L 1407.6 737.36 
" style="fill: none; stroke: #000000; stroke-width: 0.8; stroke-linejoin: miter; stroke-linecap: square"/>
   </g>
   <g id="text_33">
    <!-- 30 -->
    <g transform="translate(486.768251 1160.938125)scale(0.3 -0.3)">
     <defs>
      <path id="DejaVuSans-Bold-30" d="M 2944 2338 
Q 2944 3213 2780 3570 
Q 2616 3928 2228 3928 
Q 1841 3928 1675 3570 
Q 1509 3213 1509 2338 
Q 1509 1453 1675 1090 
Q 1841 728 2228 728 
Q 2613 728 2778 1090 
Q 2944 1453 2944 2338 
z
M 4147 2328 
Q 4147 1169 3647 539 
Q 3147 -91 2228 -91 
Q 1306 -91 806 539 
Q 306 1169 306 2328 
Q 306 3491 806 4120 
Q 1306 4750 2228 4750 
Q 3147 4750 3647 4120 
Q 4147 3491 4147 2328 
z
" transform="scale(0.015625)"/>
     </defs>
     <use xlink:href="#DejaVuSans-Bold-33"/>
     <use xlink:href="#DejaVuSans-Bold-30" x="69.580078"/>
    </g>
   </g>
   <g id="text_34">
    <!-- 303 -->
    <g transform="translate(1244.418333 1050.191458)scale(0.3 -0.3)">
     <use xlink:href="#DejaVuSans-Bold-33"/>
     <use xlink:href="#DejaVuSans-Bold-30" x="69.580078"/>
     <use xlink:href="#DejaVuSans-Bold-33" x="139.160156"/>
    </g>
   </g>
   <g id="text_35">
    <!-- 202 -->
    <g transform="translate(964.115556 939.444792)scale(0.3 -0.3)">
     <use xlink:href="#DejaVuSans-Bold-32"/>
     <use xlink:href="#DejaVuSans-Bold-30" x="69.580078"/>
     <use xlink:href="#DejaVuSans-Bold-32" x="139.160156"/>
    </g>
   </g>
   <g id="text_36">
    <!-- 130 -->
    <g transform="translate(764.295754 828.698125)scale(0.3 -0.3)">
     <use xlink:href="#DejaVuSans-Bold-31"/>
     <use xlink:href="#DejaVuSans-Bold-33" x="69.580078"/>
     <use xlink:href="#DejaVuSans-Bold-30" x="139.160156"/>
    </g>
   </g>
   <g id="text_37">
    <!-- NPM - Number of Public Methods - Maximum -->
    <g transform="translate(501.663437 729.873125)scale(0.36 -0.36)">
     <use xlink:href="#DejaVuSans-4e"/>
     <use xlink:href="#DejaVuSans-50" x="74.804688"/>
     <use xlink:href="#DejaVuSans-4d" x="135.107422"/>
     <use xlink:href="#DejaVuSans-20" x="221.386719"/>
     <use xlink:href="#DejaVuSans-2d" x="253.173828"/>
     <use xlink:href="#DejaVuSans-20" x="289.257812"/>
     <use xlink:href="#DejaVuSans-4e" x="321.044922"/>
     <use xlink:href="#DejaVuSans-75" x="395.849609"/>
     <use xlink:href="#DejaVuSans-6d" x="459.228516"/>
     <use xlink:href="#DejaVuSans-62" x="556.640625"/>
     <use xlink:href="#DejaVuSans-65" x="620.117188"/>
     <use xlink:href="#DejaVuSans-72" x="681.640625"/>
     <use xlink:href="#DejaVuSans-20" x="722.753906"/>
     <use xlink:href="#DejaVuSans-6f" x="754.541016"/>
     <use xlink:href="#DejaVuSans-66" x="815.722656"/>
     <use xlink:href="#DejaVuSans-20" x="850.927734"/>
     <use xlink:href="#DejaVuSans-50" x="882.714844"/>
     <use xlink:href="#DejaVuSans-75" x="941.267578"/>
     <use xlink:href="#DejaVuSans-62" x="1004.646484"/>
     <use xlink:href="#DejaVuSans-6c" x="1068.123047"/>
     <use xlink:href="#DejaVuSans-69" x="1095.90625"/>
     <use xlink:href="#DejaVuSans-63" x="1123.689453"/>
     <use xlink:href="#DejaVuSans-20" x="1178.669922"/>
     <use xlink:href="#DejaVuSans-4d" x="1210.457031"/>
     <use xlink:href="#DejaVuSans-65" x="1296.736328"/>
     <use xlink:href="#DejaVuSans-74" x="1358.259766"/>
     <use xlink:href="#DejaVuSans-68" x="1397.46875"/>
     <use xlink:href="#DejaVuSans-6f" x="1460.847656"/>
     <use xlink:href="#DejaVuSans-64" x="1522.029297"/>
     <use xlink:href="#DejaVuSans-73" x="1585.505859"/>
     <use xlink:href="#DejaVuSans-20" x="1637.605469"/>
     <use xlink:href="#DejaVuSans-2d" x="1669.392578"/>
     <use xlink:href="#DejaVuSans-20" x="1705.476562"/>
     <use xlink:href="#DejaVuSans-4d" x="1737.263672"/>
     <use xlink:href="#DejaVuSans-61" x="1823.542969"/>
     <use xlink:href="#DejaVuSans-78" x="1884.822266"/>
     <use xlink:href="#DejaVuSans-69" x="1944.001953"/>
     <use xlink:href="#DejaVuSans-6d" x="1971.785156"/>
     <use xlink:href="#DejaVuSans-75" x="2069.197266"/>
     <use xlink:href="#DejaVuSans-6d" x="2132.576172"/>
    </g>
   </g>
  </g>
  <g id="axes_3">
   <g id="patch_20">
    <path d="M 398.51 1906.12 
L 1407.6 1906.12 
L 1407.6 1407.76 
L 398.51 1407.76 
z
" style="fill: #ffffff"/>
   </g>
   <g id="patch_21">
    <path d="M 398.51 1850.746667 
L 919.117294 1850.746667 
L 919.117294 1795.373333 
L 398.51 1795.373333 
z
" clip-path="url(#p3cb9dd7739)" style="fill: #1f77b4"/>
   </g>
   <g id="patch_22">
    <path d="M 398.51 1740 
L 1239.418333 1740 
L 1239.418333 1684.626667 
L 398.51 1684.626667 
z
" clip-path="url(#p3cb9dd7739)" style="fill: #ff7f0e"/>
   </g>
   <g id="patch_23">
    <path d="M 398.51 1629.253333 
L 1047.615646 1629.253333 
L 1047.615646 1573.88 
L 398.51 1573.88 
z
" clip-path="url(#p3cb9dd7739)" style="fill: #2ca02c"/>
   </g>
   <g id="patch_24">
    <path d="M 398.51 1518.506667 
L 948.40736 1518.506667 
L 948.40736 1463.133333 
L 398.51 1463.133333 
z
" clip-path="url(#p3cb9dd7739)" style="fill: #d62728"/>
   </g>
   <g id="matplotlib.axis_5">
    <g id="xtick_16">
     <g id="line2d_24">
      <g>
       <use xlink:href="#m4c572c20bb" x="398.51" y="1906.12" style="stroke: #000000; stroke-width: 0.8"/>
      </g>
     </g>
     <g id="text_38">
      <!-- 0 -->
      <g transform="translate(388.96625 1935.915312)scale(0.3 -0.3)">
       <use xlink:href="#DejaVuSans-30"/>
      </g>
     </g>
    </g>
    <g id="xtick_17">
     <g id="line2d_25">
      <g>
       <use xlink:href="#m4c572c20bb" x="587.478165" y="1906.12" style="stroke: #000000; stroke-width: 0.8"/>
      </g>
     </g>
     <g id="text_39">
      <!-- 2 -->
      <g transform="translate(577.934415 1935.915312)scale(0.3 -0.3)">
       <use xlink:href="#DejaVuSans-32"/>
      </g>
     </g>
    </g>
    <g id="xtick_18">
     <g id="line2d_26">
      <g>
       <use xlink:href="#m4c572c20bb" x="776.44633" y="1906.12" style="stroke: #000000; stroke-width: 0.8"/>
      </g>
     </g>
     <g id="text_40">
      <!-- 4 -->
      <g transform="translate(766.90258 1935.915312)scale(0.3 -0.3)">
       <use xlink:href="#DejaVuSans-34"/>
      </g>
     </g>
    </g>
    <g id="xtick_19">
     <g id="line2d_27">
      <g>
       <use xlink:href="#m4c572c20bb" x="965.414494" y="1906.12" style="stroke: #000000; stroke-width: 0.8"/>
      </g>
     </g>
     <g id="text_41">
      <!-- 6 -->
      <g transform="translate(955.870744 1935.915312)scale(0.3 -0.3)">
       <use xlink:href="#DejaVuSans-36"/>
      </g>
     </g>
    </g>
    <g id="xtick_20">
     <g id="line2d_28">
      <g>
       <use xlink:href="#m4c572c20bb" x="1154.382659" y="1906.12" style="stroke: #000000; stroke-width: 0.8"/>
      </g>
     </g>
     <g id="text_42">
      <!-- 8 -->
      <g transform="translate(1144.838909 1935.915312)scale(0.3 -0.3)">
       <defs>
        <path id="DejaVuSans-38" d="M 2034 2216 
Q 1584 2216 1326 1975 
Q 1069 1734 1069 1313 
Q 1069 891 1326 650 
Q 1584 409 2034 409 
Q 2484 409 2743 651 
Q 3003 894 3003 1313 
Q 3003 1734 2745 1975 
Q 2488 2216 2034 2216 
z
M 1403 2484 
Q 997 2584 770 2862 
Q 544 3141 544 3541 
Q 544 4100 942 4425 
Q 1341 4750 2034 4750 
Q 2731 4750 3128 4425 
Q 3525 4100 3525 3541 
Q 3525 3141 3298 2862 
Q 3072 2584 2669 2484 
Q 3125 2378 3379 2068 
Q 3634 1759 3634 1313 
Q 3634 634 3220 271 
Q 2806 -91 2034 -91 
Q 1263 -91 848 271 
Q 434 634 434 1313 
Q 434 1759 690 2068 
Q 947 2378 1403 2484 
z
M 1172 3481 
Q 1172 3119 1398 2916 
Q 1625 2713 2034 2713 
Q 2441 2713 2670 2916 
Q 2900 3119 2900 3481 
Q 2900 3844 2670 4047 
Q 2441 4250 2034 4250 
Q 1625 4250 1398 4047 
Q 1172 3844 1172 3481 
z
" transform="scale(0.015625)"/>
       </defs>
       <use xlink:href="#DejaVuSans-38"/>
      </g>
     </g>
    </g>
    <g id="xtick_21">
     <g id="line2d_29">
      <g>
       <use xlink:href="#m4c572c20bb" x="1343.350824" y="1906.12" style="stroke: #000000; stroke-width: 0.8"/>
      </g>
     </g>
     <g id="text_43">
      <!-- 10 -->
      <g transform="translate(1324.263324 1935.915312)scale(0.3 -0.3)">
       <use xlink:href="#DejaVuSans-31"/>
       <use xlink:href="#DejaVuSans-30" x="63.623047"/>
      </g>
     </g>
    </g>
    <g id="text_44">
     <!-- Metric Values -->
     <g transform="translate(398.51 1974.949687)scale(0.3 -0.3)">
      <use xlink:href="#DejaVuSans-Bold-4d"/>
      <use xlink:href="#DejaVuSans-Bold-65" x="99.511719"/>
      <use xlink:href="#DejaVuSans-Bold-74" x="167.333984"/>
      <use xlink:href="#DejaVuSans-Bold-72" x="215.136719"/>
      <use xlink:href="#DejaVuSans-Bold-69" x="264.453125"/>
      <use xlink:href="#DejaVuSans-Bold-63" x="298.730469"/>
      <use xlink:href="#DejaVuSans-Bold-20" x="358.007812"/>
      <use xlink:href="#DejaVuSans-Bold-56" x="392.822266"/>
      <use xlink:href="#DejaVuSans-Bold-61" x="464.714844"/>
      <use xlink:href="#DejaVuSans-Bold-6c" x="532.195312"/>
      <use xlink:href="#DejaVuSans-Bold-75" x="566.472656"/>
      <use xlink:href="#DejaVuSans-Bold-65" x="637.664062"/>
      <use xlink:href="#DejaVuSans-Bold-73" x="705.486328"/>
     </g>
    </g>
   </g>
   <g id="matplotlib.axis_6">
    <g id="ytick_9">
     <g id="line2d_30">
      <g>
       <use xlink:href="#m60e3178102" x="398.51" y="1823.06" style="stroke: #000000; stroke-width: 0.8"/>
      </g>
     </g>
     <g id="text_45">
      <!-- FastCSV_avg -->
      <g transform="translate(200.517812 1834.192812)scale(0.3 -0.3)">
       <use xlink:href="#DejaVuSans-46"/>
       <use xlink:href="#DejaVuSans-61" x="48.394531"/>
       <use xlink:href="#DejaVuSans-73" x="109.673828"/>
       <use xlink:href="#DejaVuSans-74" x="161.773438"/>
       <use xlink:href="#DejaVuSans-43" x="200.982422"/>
       <use xlink:href="#DejaVuSans-53" x="270.806641"/>
       <use xlink:href="#DejaVuSans-56" x="334.283203"/>
       <use xlink:href="#DejaVuSans-5f" x="402.691406"/>
       <use xlink:href="#DejaVuSans-61" x="452.691406"/>
       <use xlink:href="#DejaVuSans-76" x="513.970703"/>
       <use xlink:href="#DejaVuSans-67" x="573.150391"/>
      </g>
     </g>
    </g>
    <g id="ytick_10">
     <g id="line2d_31">
      <g>
       <use xlink:href="#m60e3178102" x="398.51" y="1712.313333" style="stroke: #000000; stroke-width: 0.8"/>
      </g>
     </g>
     <g id="text_46">
      <!-- Java-WebSocket_avg -->
      <g transform="translate(82.519375 1723.71099)scale(0.3 -0.3)">
       <use xlink:href="#DejaVuSans-4a"/>
       <use xlink:href="#DejaVuSans-61" x="29.492188"/>
       <use xlink:href="#DejaVuSans-76" x="90.771484"/>
       <use xlink:href="#DejaVuSans-61" x="149.951172"/>
       <use xlink:href="#DejaVuSans-2d" x="211.230469"/>
       <use xlink:href="#DejaVuSans-57" x="243.314453"/>
       <use xlink:href="#DejaVuSans-65" x="336.316406"/>
       <use xlink:href="#DejaVuSans-62" x="397.839844"/>
       <use xlink:href="#DejaVuSans-53" x="461.316406"/>
       <use xlink:href="#DejaVuSans-6f" x="524.792969"/>
       <use xlink:href="#DejaVuSans-63" x="585.974609"/>
       <use xlink:href="#DejaVuSans-6b" x="640.955078"/>
       <use xlink:href="#DejaVuSans-65" x="695.240234"/>
       <use xlink:href="#DejaVuSans-74" x="756.763672"/>
       <use xlink:href="#DejaVuSans-5f" x="795.972656"/>
       <use xlink:href="#DejaVuSans-61" x="845.972656"/>
       <use xlink:href="#DejaVuSans-76" x="907.251953"/>
       <use xlink:href="#DejaVuSans-67" x="966.431641"/>
      </g>
     </g>
    </g>
    <g id="ytick_11">
     <g id="line2d_32">
      <g>
       <use xlink:href="#m60e3178102" x="398.51" y="1601.566667" style="stroke: #000000; stroke-width: 0.8"/>
      </g>
     </g>
     <g id="text_47">
      <!-- spring-kafka_avg -->
      <g transform="translate(136.07875 1612.964323)scale(0.3 -0.3)">
       <use xlink:href="#DejaVuSans-73"/>
       <use xlink:href="#DejaVuSans-70" x="52.099609"/>
       <use xlink:href="#DejaVuSans-72" x="115.576172"/>
       <use xlink:href="#DejaVuSans-69" x="156.689453"/>
       <use xlink:href="#DejaVuSans-6e" x="184.472656"/>
       <use xlink:href="#DejaVuSans-67" x="247.851562"/>
       <use xlink:href="#DejaVuSans-2d" x="311.328125"/>
       <use xlink:href="#DejaVuSans-6b" x="347.412109"/>
       <use xlink:href="#DejaVuSans-61" x="403.572266"/>
       <use xlink:href="#DejaVuSans-66" x="464.851562"/>
       <use xlink:href="#DejaVuSans-6b" x="500.056641"/>
       <use xlink:href="#DejaVuSans-61" x="556.216797"/>
       <use xlink:href="#DejaVuSans-5f" x="617.496094"/>
       <use xlink:href="#DejaVuSans-61" x="667.496094"/>
       <use xlink:href="#DejaVuSans-76" x="728.775391"/>
       <use xlink:href="#DejaVuSans-67" x="787.955078"/>
      </g>
     </g>
    </g>
    <g id="ytick_12">
     <g id="line2d_33">
      <g>
       <use xlink:href="#m60e3178102" x="398.51" y="1490.82" style="stroke: #000000; stroke-width: 0.8"/>
      </g>
     </g>
     <g id="text_48">
      <!-- mockito_avg -->
      <g transform="translate(201.427188 1502.217656)scale(0.3 -0.3)">
       <use xlink:href="#DejaVuSans-6d"/>
       <use xlink:href="#DejaVuSans-6f" x="97.412109"/>
       <use xlink:href="#DejaVuSans-63" x="158.59375"/>
       <use xlink:href="#DejaVuSans-6b" x="213.574219"/>
       <use xlink:href="#DejaVuSans-69" x="271.484375"/>
       <use xlink:href="#DejaVuSans-74" x="299.267578"/>
       <use xlink:href="#DejaVuSans-6f" x="338.476562"/>
       <use xlink:href="#DejaVuSans-5f" x="399.658203"/>
       <use xlink:href="#DejaVuSans-61" x="449.658203"/>
       <use xlink:href="#DejaVuSans-76" x="510.9375"/>
       <use xlink:href="#DejaVuSans-67" x="570.117188"/>
      </g>
     </g>
    </g>
    <g id="text_49">
     <!-- Repositories -->
     <g transform="translate(66.280313 1906.12)rotate(-90)scale(0.3 -0.3)">
      <use xlink:href="#DejaVuSans-Bold-52"/>
      <use xlink:href="#DejaVuSans-Bold-65" x="77.001953"/>
      <use xlink:href="#DejaVuSans-Bold-70" x="144.824219"/>
      <use xlink:href="#DejaVuSans-Bold-6f" x="216.40625"/>
      <use xlink:href="#DejaVuSans-Bold-73" x="285.107422"/>
      <use xlink:href="#DejaVuSans-Bold-69" x="344.628906"/>
      <use xlink:href="#DejaVuSans-Bold-74" x="378.90625"/>
      <use xlink:href="#DejaVuSans-Bold-6f" x="426.708984"/>
      <use xlink:href="#DejaVuSans-Bold-72" x="495.410156"/>
      <use xlink:href="#DejaVuSans-Bold-69" x="544.726562"/>
      <use xlink:href="#DejaVuSans-Bold-65" x="579.003906"/>
      <use xlink:href="#DejaVuSans-Bold-73" x="646.826172"/>
     </g>
    </g>
   </g>
   <g id="patch_25">
    <path d="M 398.51 1906.12 
L 398.51 1407.76 
" style="fill: none; stroke: #000000; stroke-width: 0.8; stroke-linejoin: miter; stroke-linecap: square"/>
   </g>
   <g id="patch_26">
    <path d="M 1407.6 1906.12 
L 1407.6 1407.76 
" style="fill: none; stroke: #000000; stroke-width: 0.8; stroke-linejoin: miter; stroke-linecap: square"/>
   </g>
   <g id="patch_27">
    <path d="M 398.51 1906.12 
L 1407.6 1906.12 
" style="fill: none; stroke: #000000; stroke-width: 0.8; stroke-linejoin: miter; stroke-linecap: square"/>
   </g>
   <g id="patch_28">
    <path d="M 398.51 1407.76 
L 1407.6 1407.76 
" style="fill: none; stroke: #000000; stroke-width: 0.8; stroke-linejoin: miter; stroke-linecap: square"/>
   </g>
   <g id="text_50">
    <!-- 5.51 -->
    <g transform="translate(924.117294 1831.338125)scale(0.3 -0.3)">
     <defs>
      <path id="DejaVuSans-Bold-2e" d="M 653 1209 
L 1778 1209 
L 1778 0 
L 653 0 
L 653 1209 
z
" transform="scale(0.015625)"/>
     </defs>
     <use xlink:href="#DejaVuSans-Bold-35"/>
     <use xlink:href="#DejaVuSans-Bold-2e" x="69.580078"/>
     <use xlink:href="#DejaVuSans-Bold-35" x="107.568359"/>
     <use xlink:href="#DejaVuSans-Bold-31" x="177.148438"/>
    </g>
   </g>
   <g id="text_51">
    <!-- 8.9 -->
    <g transform="translate(1244.418333 1720.591458)scale(0.3 -0.3)">
     <defs>
      <path id="DejaVuSans-Bold-38" d="M 2228 2088 
Q 1891 2088 1709 1903 
Q 1528 1719 1528 1375 
Q 1528 1031 1709 848 
Q 1891 666 2228 666 
Q 2563 666 2741 848 
Q 2919 1031 2919 1375 
Q 2919 1722 2741 1905 
Q 2563 2088 2228 2088 
z
M 1350 2484 
Q 925 2613 709 2878 
Q 494 3144 494 3541 
Q 494 4131 934 4440 
Q 1375 4750 2228 4750 
Q 3075 4750 3515 4442 
Q 3956 4134 3956 3541 
Q 3956 3144 3739 2878 
Q 3522 2613 3097 2484 
Q 3572 2353 3814 2058 
Q 4056 1763 4056 1313 
Q 4056 619 3595 264 
Q 3134 -91 2228 -91 
Q 1319 -91 855 264 
Q 391 619 391 1313 
Q 391 1763 633 2058 
Q 875 2353 1350 2484 
z
M 1631 3419 
Q 1631 3141 1786 2991 
Q 1941 2841 2228 2841 
Q 2509 2841 2662 2991 
Q 2816 3141 2816 3419 
Q 2816 3697 2662 3845 
Q 2509 3994 2228 3994 
Q 1941 3994 1786 3844 
Q 1631 3694 1631 3419 
z
" transform="scale(0.015625)"/>
      <path id="DejaVuSans-Bold-39" d="M 641 103 
L 641 966 
Q 928 831 1190 764 
Q 1453 697 1709 697 
Q 2247 697 2547 995 
Q 2847 1294 2900 1881 
Q 2688 1725 2447 1647 
Q 2206 1569 1925 1569 
Q 1209 1569 770 1986 
Q 331 2403 331 3084 
Q 331 3838 820 4291 
Q 1309 4744 2131 4744 
Q 3044 4744 3544 4128 
Q 4044 3513 4044 2388 
Q 4044 1231 3459 570 
Q 2875 -91 1856 -91 
Q 1528 -91 1228 -42 
Q 928 6 641 103 
z
M 2125 2350 
Q 2441 2350 2600 2554 
Q 2759 2759 2759 3169 
Q 2759 3575 2600 3781 
Q 2441 3988 2125 3988 
Q 1809 3988 1650 3781 
Q 1491 3575 1491 3169 
Q 1491 2759 1650 2554 
Q 1809 2350 2125 2350 
z
" transform="scale(0.015625)"/>
     </defs>
     <use xlink:href="#DejaVuSans-Bold-38"/>
     <use xlink:href="#DejaVuSans-Bold-2e" x="69.580078"/>
     <use xlink:href="#DejaVuSans-Bold-39" x="107.568359"/>
    </g>
   </g>
   <g id="text_52">
    <!-- 6.87 -->
    <g transform="translate(1052.615646 1609.844792)scale(0.3 -0.3)">
     <defs>
      <path id="DejaVuSans-Bold-36" d="M 2316 2303 
Q 2000 2303 1842 2098 
Q 1684 1894 1684 1484 
Q 1684 1075 1842 870 
Q 2000 666 2316 666 
Q 2634 666 2792 870 
Q 2950 1075 2950 1484 
Q 2950 1894 2792 2098 
Q 2634 2303 2316 2303 
z
M 3803 4544 
L 3803 3681 
Q 3506 3822 3243 3889 
Q 2981 3956 2731 3956 
Q 2194 3956 1894 3657 
Q 1594 3359 1544 2772 
Q 1750 2925 1990 3001 
Q 2231 3078 2516 3078 
Q 3231 3078 3670 2659 
Q 4109 2241 4109 1563 
Q 4109 813 3618 361 
Q 3128 -91 2303 -91 
Q 1394 -91 895 523 
Q 397 1138 397 2266 
Q 397 3422 980 4083 
Q 1563 4744 2578 4744 
Q 2900 4744 3203 4694 
Q 3506 4644 3803 4544 
z
" transform="scale(0.015625)"/>
     </defs>
     <use xlink:href="#DejaVuSans-Bold-36"/>
     <use xlink:href="#DejaVuSans-Bold-2e" x="69.580078"/>
     <use xlink:href="#DejaVuSans-Bold-38" x="107.568359"/>
     <use xlink:href="#DejaVuSans-Bold-37" x="177.148438"/>
    </g>
   </g>
   <g id="text_53">
    <!-- 5.82 -->
    <g transform="translate(953.40736 1499.098125)scale(0.3 -0.3)">
     <use xlink:href="#DejaVuSans-Bold-35"/>
     <use xlink:href="#DejaVuSans-Bold-2e" x="69.580078"/>
     <use xlink:href="#DejaVuSans-Bold-38" x="107.568359"/>
     <use xlink:href="#DejaVuSans-Bold-32" x="177.148438"/>
    </g>
   </g>
   <g id="text_54">
    <!-- NPM - Number of Public Methods - Average -->
    <g transform="translate(516.434687 1400.273125)scale(0.36 -0.36)">
     <defs>
      <path id="DejaVuSans-41" d="M 2188 4044 
L 1331 1722 
L 3047 1722 
L 2188 4044 
z
M 1831 4666 
L 2547 4666 
L 4325 0 
L 3669 0 
L 3244 1197 
L 1141 1197 
L 716 0 
L 50 0 
L 1831 4666 
z
" transform="scale(0.015625)"/>
     </defs>
     <use xlink:href="#DejaVuSans-4e"/>
     <use xlink:href="#DejaVuSans-50" x="74.804688"/>
     <use xlink:href="#DejaVuSans-4d" x="135.107422"/>
     <use xlink:href="#DejaVuSans-20" x="221.386719"/>
     <use xlink:href="#DejaVuSans-2d" x="253.173828"/>
     <use xlink:href="#DejaVuSans-20" x="289.257812"/>
     <use xlink:href="#DejaVuSans-4e" x="321.044922"/>
     <use xlink:href="#DejaVuSans-75" x="395.849609"/>
     <use xlink:href="#DejaVuSans-6d" x="459.228516"/>
     <use xlink:href="#DejaVuSans-62" x="556.640625"/>
     <use xlink:href="#DejaVuSans-65" x="620.117188"/>
     <use xlink:href="#DejaVuSans-72" x="681.640625"/>
     <use xlink:href="#DejaVuSans-20" x="722.753906"/>
     <use xlink:href="#DejaVuSans-6f" x="754.541016"/>
     <use xlink:href="#DejaVuSans-66" x="815.722656"/>
     <use xlink:href="#DejaVuSans-20" x="850.927734"/>
     <use xlink:href="#DejaVuSans-50" x="882.714844"/>
     <use xlink:href="#DejaVuSans-75" x="941.267578"/>
     <use xlink:href="#DejaVuSans-62" x="1004.646484"/>
     <use xlink:href="#DejaVuSans-6c" x="1068.123047"/>
     <use xlink:href="#DejaVuSans-69" x="1095.90625"/>
     <use xlink:href="#DejaVuSans-63" x="1123.689453"/>
     <use xlink:href="#DejaVuSans-20" x="1178.669922"/>
     <use xlink:href="#DejaVuSans-4d" x="1210.457031"/>
     <use xlink:href="#DejaVuSans-65" x="1296.736328"/>
     <use xlink:href="#DejaVuSans-74" x="1358.259766"/>
     <use xlink:href="#DejaVuSans-68" x="1397.46875"/>
     <use xlink:href="#DejaVuSans-6f" x="1460.847656"/>
     <use xlink:href="#DejaVuSans-64" x="1522.029297"/>
     <use xlink:href="#DejaVuSans-73" x="1585.505859"/>
     <use xlink:href="#DejaVuSans-20" x="1637.605469"/>
     <use xlink:href="#DejaVuSans-2d" x="1669.392578"/>
     <use xlink:href="#DejaVuSans-20" x="1705.476562"/>
     <use xlink:href="#DejaVuSans-41" x="1737.263672"/>
     <use xlink:href="#DejaVuSans-76" x="1799.796875"/>
     <use xlink:href="#DejaVuSans-65" x="1858.976562"/>
     <use xlink:href="#DejaVuSans-72" x="1920.5"/>
     <use xlink:href="#DejaVuSans-61" x="1961.613281"/>
     <use xlink:href="#DejaVuSans-67" x="2022.892578"/>
     <use xlink:href="#DejaVuSans-65" x="2086.369141"/>
    </g>
   </g>
  </g>
 </g>
 <defs>
  <clipPath id="pa4837fd4d5">
   <rect x="398.51" y="66.96" width="1009.09" height="498.36"/>
  </clipPath>
  <clipPath id="p0b9b547dd5">
   <rect x="398.51" y="737.36" width="1009.09" height="498.36"/>
  </clipPath>
  <clipPath id="p3cb9dd7739">
   <rect x="398.51" y="1407.76" width="1009.09" height="498.36"/>
  </clipPath>
 </defs>
</svg>
